<svg width="795" height="268" viewBox="0 0 795 268" fill="none" xmlns="http://www.w3.org/2000/svg">
<g clip-path="url(#clip0)">
<path d="M563.606 238.184L546.214 268.471L581.034 268.494L563.606 238.184Z" fill="#FEFEFE"/>
<path d="M588.68 223.683L606.074 253.98L623.489 223.681L588.68 223.683Z" fill="#3A8BC9"/>
<path d="M648.523 238.19L631.114 268.494L665.949 268.492L648.523 238.19Z" fill="#FEFEFE"/>
<path d="M563.676 93.7134L549.038 119.168L578.288 119.179L563.676 93.7134Z" fill="#FEFEFE"/>
<path d="M549.006 151.416L563.66 176.877L578.272 151.43L549.006 151.416Z" fill="#FEFEFE"/>
<path d="M591.472 77.5724L606.114 103.035L620.733 77.5775L591.472 77.5724Z" fill="#FEFEFE"/>
<path d="M606.111 167.558L591.472 193.012L620.73 193.022L606.111 167.558Z" fill="#FEFEFE"/>
<path d="M648.572 93.7159L633.938 119.176L663.2 119.179L648.572 93.7159Z" fill="#3A8BC9"/>
<path d="M633.906 151.442L648.533 176.909L663.167 151.45L633.906 151.442Z" fill="#FEFEFE"/>
<path d="M551.798 5.31549L563.651 25.9321L575.518 5.31168L551.798 5.31549Z" fill="#FEFEFE"/>
<path d="M606.106 23.084L594.265 43.6981L617.956 43.707L606.106 23.084Z" fill="#FEFEFE"/>
<path d="M636.698 5.3378L648.543 25.9646L660.408 5.34921L636.698 5.3378Z" fill="#FEFEFE"/>
<path d="M690.973 164.353L673.579 194.649L708.397 194.652L690.973 164.353Z" fill="#FEFEFE"/>
<path d="M673.547 223.691L690.959 253.98L708.383 223.695L673.547 223.691Z" fill="#FEFEFE"/>
<path d="M716.013 149.842L733.436 180.138L750.859 149.845L716.013 149.842Z" fill="#FEFEFE"/>
<path d="M733.447 238.2L716.012 268.494L750.841 268.493L733.447 238.2Z" fill="#FEFEFE"/>
<path d="M775.884 164.355L758.479 194.643L793.288 194.653L775.884 164.355Z" fill="#FEFEFE"/>
<path d="M758.479 223.714L775.865 254.013L793.288 223.723L758.479 223.714Z" fill="#3A8BC9"/>
<path d="M691.006 19.8797L676.371 45.3254L705.63 45.3381L691.006 19.8797Z" fill="#3A8BC9"/>
<path d="M676.371 77.5945L691.007 103.067L705.642 77.6072L676.371 77.5945Z" fill="#FEFEFE"/>
<path d="M718.837 3.72197L733.46 29.1931L748.095 3.74104L718.837 3.72197Z" fill="#FEFEFE"/>
<path d="M733.444 93.7198L718.805 119.179H748.078L733.444 93.7198Z" fill="#FEFEFE"/>
<path d="M775.905 19.8886L761.271 45.3381L790.549 45.3369L775.905 19.8886Z" fill="#FEFEFE"/>
<path d="M761.271 77.6047L775.884 103.067L790.536 77.611L761.271 77.6047Z" fill="#FEFEFE"/>
<path d="M11.8639 170.68L0 191.292H23.7038L11.8639 170.68Z" fill="#3A8BC9"/>
<path d="M0 226.798L11.8639 247.424L23.6987 226.81L0 226.798Z" fill="#FEFEFE"/>
<path d="M11.8911 26.1963L2.82446 41.9788L20.9603 41.9686L11.8911 26.1963Z" fill="#FEFEFE"/>
<path d="M2.79214 80.7093L11.8664 96.479L20.9356 80.6991L2.79214 80.7093Z" fill="#FEFEFE"/>
<path d="M54.2994 238.094L36.8815 268.373L71.7211 268.397L54.2994 238.094Z" fill="#3A8BC9"/>
<path d="M79.3154 223.588L96.7093 253.882L114.156 223.588H79.3154Z" fill="#FEFEFE"/>
<path d="M139.18 238.128L121.749 268.418L156.585 268.428L139.18 238.128Z" fill="#FEFEFE"/>
<path d="M54.3151 93.6264L39.6742 119.081L68.9497 119.08L54.3151 93.6264Z" fill="#FEFEFE"/>
<path d="M39.6742 151.332L54.3037 176.779L68.932 151.337L39.6742 151.332Z" fill="#FEFEFE"/>
<path d="M82.1399 77.4801L96.7694 102.937L111.404 77.4738L82.1399 77.4801Z" fill="#FEFEFE"/>
<path d="M96.7371 167.457L82.1076 192.923L111.365 192.922L96.7371 167.457Z" fill="#FEFEFE"/>
<path d="M139.197 93.6223L124.574 119.082L153.854 119.079L139.197 93.6223Z" fill="#FEFEFE"/>
<path d="M124.573 151.338L139.208 176.812L153.831 151.35L124.573 151.338Z" fill="#3A8BC9"/>
<path d="M42.4664 5.24707L54.3126 25.8662L66.1651 5.25724L42.4664 5.24707Z" fill="#3A8BC9"/>
<path d="M96.7749 22.9752L84.8996 43.6033L108.608 43.6096L96.7749 22.9752Z" fill="#3A8BC9"/>
<path d="M127.365 5.25335L139.21 25.8662L151.074 5.24573L127.365 5.25335Z" fill="#FEFEFE"/>
<path d="M181.638 164.257L164.215 194.551L199.056 194.554L181.638 164.257Z" fill="#FEFEFE"/>
<path d="M164.215 223.575L181.614 253.882L199.056 223.587L164.215 223.575Z" fill="#FEFEFE"/>
<path d="M206.68 149.75L224.086 180.041L241.511 149.743L206.68 149.75Z" fill="#FEFEFE"/>
<path d="M224.049 238.128L206.649 268.429L241.473 268.423L224.049 238.128Z" fill="#FEFEFE"/>
<path d="M266.527 164.291L249.114 194.581L283.932 194.587L266.527 164.291Z" fill="#3A8BC9"/>
<path d="M249.114 223.613L266.503 253.914L283.921 223.628L249.114 223.613Z" fill="#FEFEFE"/>
<path d="M181.661 19.7711L167.039 45.2321L196.301 45.2397L181.661 19.7711Z" fill="#FEFEFE"/>
<path d="M167.039 77.5062L181.661 102.97L196.301 77.5126L167.039 77.5062Z" fill="#FEFEFE"/>
<path d="M209.473 3.66879L224.089 29.1272L238.723 3.66879L209.473 3.66879Z" fill="#FEFEFE"/>
<path d="M224.1 93.6561L209.473 119.112L238.723 119.115L224.1 93.6561Z" fill="#3A8BC9"/>
<path d="M266.573 19.8074L251.939 45.2722H281.189L266.573 19.8074Z" fill="#FEFEFE"/>
<path d="M251.939 77.4973L266.562 102.97L281.202 77.5138L251.939 77.4973Z" fill="#FEFEFE"/>
<path d="M308.972 238.14L291.548 268.428L326.378 268.429L308.972 238.14Z" fill="#3A8BC9"/>
<path d="M333.982 223.611L351.406 253.915L368.83 223.616L333.982 223.611Z" fill="#3A8BC9"/>
<path d="M393.86 238.165L376.448 268.452L411.266 268.462L393.86 238.165Z" fill="#FEFEFE"/>
<path d="M309.007 93.6675L294.373 119.112L323.634 119.115L309.007 93.6675Z" fill="#FEFEFE"/>
<path d="M294.34 151.391L308.975 176.844L323.598 151.392L294.34 151.391Z" fill="#3A8BC9"/>
<path d="M336.806 77.545L351.421 103.002L366.056 77.5412L336.806 77.545Z" fill="#FEFEFE"/>
<path d="M351.403 167.506L336.774 192.957H366.031L351.403 167.506Z" fill="#FEFEFE"/>
<path d="M393.891 93.672L379.239 119.147L408.515 119.142L393.891 93.672Z" fill="#FEFEFE"/>
<path d="M379.239 151.384L393.869 176.844L408.504 151.378L379.239 151.384Z" fill="#FEFEFE"/>
<path d="M297.132 5.27693L308.996 25.8987L320.846 5.2947L297.132 5.27693Z" fill="#FEFEFE"/>
<path d="M351.434 23.049L339.566 43.6746H363.287L351.434 23.049Z" fill="#FEFEFE"/>
<path d="M382.032 5.3056L393.883 25.9312L405.749 5.31577L382.032 5.3056Z" fill="#FEFEFE"/>
<path d="M436.308 164.323L418.881 194.619H453.714L436.308 164.323Z" fill="#FEFEFE"/>
<path d="M418.881 223.644L436.293 253.948L453.702 223.669L418.881 223.644Z" fill="#FEFEFE"/>
<path d="M461.347 149.791L478.745 180.105L496.192 149.791H461.347Z" fill="#3A8BC9"/>
<path d="M478.753 238.167L461.314 268.462L496.136 268.454L478.753 238.167Z" fill="#FEFEFE"/>
<path d="M521.194 164.32L503.78 194.617L538.611 194.619L521.194 164.32Z" fill="#FEFEFE"/>
<path d="M503.78 223.651L521.194 253.948L538.611 223.662L503.78 223.651Z" fill="#FEFEFE"/>
<path d="M436.334 19.8173L421.705 45.2732L450.974 45.2707L436.334 19.8173Z" fill="#FEFEFE"/>
<path d="M421.673 77.5476L436.313 103.002L450.931 77.5425L421.673 77.5476Z" fill="#3A8BC9"/>
<path d="M464.139 3.69962L478.744 29.1606L493.402 3.69962L464.139 3.69962Z" fill="#FEFEFE"/>
<path d="M478.766 93.6822L464.139 119.133L493.411 119.147L478.766 93.6822Z" fill="#3A8BC9"/>
<path d="M521.244 19.8399L506.605 45.3021L535.885 45.3047L521.244 19.8399Z" fill="#FEFEFE"/>
<path d="M506.605 77.575L521.233 103.035L535.855 77.575H506.605Z" fill="#FEFEFE"/>
</g>
<defs>
<clipPath id="clip0">
<rect width="268" height="795" fill="white" transform="translate(0 268) rotate(-90)"/>
</clipPath>
</defs>
</svg>
