<svg width="136" height="81" viewBox="0 0 136 81" fill="none" xmlns="http://www.w3.org/2000/svg">
<g clip-path="url(#clip0)">
<path d="M34.5738 33.8927C38.0472 30.419 42.8467 28.2702 48.1473 28.2702C53.4481 28.2702 58.2472 30.419 61.7207 33.8927C65.1946 37.3662 67.3433 42.1658 67.3433 47.4664C67.3433 52.7673 65.1946 57.5666 61.7207 61.0401C58.2472 64.514 53.4483 66.6627 48.1473 66.6627C42.8467 66.6627 38.0472 64.514 34.5738 61.0401C31.1001 57.5666 28.9512 52.7674 28.9512 47.4664C28.9512 42.1658 31.1001 37.3663 34.5738 33.8927ZM48.1473 39.5664C45.966 39.5664 43.9906 40.451 42.5612 41.8802C41.1319 43.3096 40.2474 45.2852 40.2474 47.4664C40.2474 49.6478 41.1319 51.623 42.5612 53.0524C43.9903 54.4816 45.9661 55.3661 48.1473 55.3661C50.3287 55.3661 52.3043 54.4816 53.7332 53.0524C55.1624 51.6233 56.047 49.6478 56.047 47.4664C56.047 45.2852 55.1626 43.3093 53.7332 41.8802C52.3038 40.451 50.3287 39.5664 48.1473 39.5664Z" fill="white"/>
<path d="M89.3461 28.2702C94.6468 28.2702 99.4459 30.419 102.919 33.8927C106.393 37.3662 108.542 42.1658 108.542 47.4664C108.542 52.7673 106.393 57.5666 102.919 61.0401C99.4459 64.514 94.647 66.6627 89.3461 66.6627C84.0454 66.6627 79.2459 64.514 75.7725 61.0401C72.2988 57.5666 70.1499 52.7674 70.1499 47.4664C70.1499 42.1658 72.2988 37.3663 75.7725 33.8927C79.2459 30.419 84.0454 28.2702 89.3461 28.2702ZM94.9319 41.8802C93.5025 40.451 91.5276 39.5664 89.3461 39.5664C87.1649 39.5664 85.1893 40.451 83.7599 41.8802C82.3307 43.3096 81.4461 45.2852 81.4461 47.4664C81.4461 49.6478 82.3307 51.623 83.7599 53.0524C85.189 54.4816 87.1649 55.3661 89.3461 55.3661C91.5274 55.3661 93.503 54.4816 94.9319 53.0524C96.3613 51.6233 97.2457 49.6478 97.2457 47.4664C97.2457 45.2852 96.3613 43.3093 94.9319 41.8802Z" fill="white"/>
<path fill-rule="evenodd" clip-rule="evenodd" d="M56.3755 61.2323C56.3755 64.2909 58.8553 66.7705 61.9137 66.7705C64.972 66.7705 67.4515 64.2909 67.4515 61.2323V33.5868C67.4515 30.5283 64.9722 28.049 61.9137 28.049C58.8552 28.049 56.3755 30.5285 56.3755 33.5868V61.2323Z" fill="white"/>
<path fill-rule="evenodd" clip-rule="evenodd" d="M9.56836 60.9026C9.56836 63.9613 12.0482 66.4408 15.1066 66.4408C18.1649 66.4408 20.6444 63.9613 20.6444 60.9026V26.7106C20.6444 23.6521 18.1649 21.1726 15.1066 21.1726C12.048 21.1726 9.56836 23.6521 9.56836 26.7106V60.9026Z" fill="white"/>
<path fill-rule="evenodd" clip-rule="evenodd" d="M5.5381 31.7756C2.47951 31.7756 0 34.2554 0 37.3138C0 40.3721 2.47951 42.8516 5.5381 42.8516H23.9719C27.0303 42.8516 29.5097 40.3722 29.5097 37.3138C29.5097 34.2551 27.0302 31.7756 23.9719 31.7756H5.5381Z" fill="white"/>
<path fill-rule="evenodd" clip-rule="evenodd" d="M70.041 75.3824C70.041 78.4411 72.5208 80.9206 75.5793 80.9206C78.6376 80.9206 81.1171 78.4411 81.1171 75.3824V33.5868C81.1171 30.5283 78.6377 28.049 75.5793 28.049C72.5207 28.049 70.041 30.5285 70.041 33.5868V75.3824Z" fill="white"/>
<path fill-rule="evenodd" clip-rule="evenodd" d="M122.345 19.1274C119.831 19.1274 117.793 21.1655 117.793 23.679C117.793 26.1924 119.832 28.2301 122.345 28.2301H131.448C133.962 28.2301 136 26.1924 136 23.679C136 21.1652 133.962 19.1274 131.448 19.1274H122.345Z" fill="white"/>
<path fill-rule="evenodd" clip-rule="evenodd" d="M113.075 10.0244C110.561 10.0244 108.523 12.0625 108.523 14.5759C108.523 17.0894 110.561 19.127 113.075 19.127H122.178C124.692 19.127 126.73 17.0894 126.73 14.5759C126.73 12.0622 124.692 10.0244 122.178 10.0244H113.075Z" fill="white"/>
<path d="M117.633 23.679C117.633 26.1928 115.596 28.2306 113.082 28.2306C110.568 28.2306 108.53 26.1928 108.53 23.679C108.53 21.1652 110.568 19.1274 113.082 19.1274C115.596 19.1274 117.633 21.1652 117.633 23.679Z" fill="white"/>
<path d="M131.287 19.1275C133.801 19.1275 135.839 17.0897 135.839 14.5759C135.839 12.0622 133.801 10.0244 131.287 10.0244C128.774 10.0244 126.736 12.0622 126.736 14.5759C126.736 17.0897 128.774 19.1275 131.287 19.1275Z" fill="white"/>
<path fill-rule="evenodd" clip-rule="evenodd" d="M122.178 0.921417C119.664 0.921417 117.626 2.9595 117.626 5.47296C117.626 7.98642 119.664 10.0241 122.178 10.0241H131.281C133.795 10.0241 135.833 7.98642 135.833 5.47296C135.833 2.95921 133.795 0.921417 131.281 0.921417H122.178Z" fill="white"/>
<path d="M117.633 5.47296C117.633 7.98672 115.596 10.0245 113.082 10.0245C110.568 10.0245 108.53 7.98672 108.53 5.47296C108.53 2.95919 110.568 0.921387 113.082 0.921387C115.596 0.921387 117.633 2.95919 117.633 5.47296Z" fill="white"/>
</g>
<defs>
<clipPath id="clip0">
<rect width="136" height="80" fill="white" transform="translate(0 0.921387)"/>
</clipPath>
</defs>
</svg>
