<svg width="182" height="88" viewBox="0 0 182 88" fill="none" xmlns="http://www.w3.org/2000/svg">
<g clip-path="url(#clip0)">
<path fill-rule="evenodd" clip-rule="evenodd" d="M138.869 69.1004C91.0682 69.1004 83.89 66.3704 138.869 66.3704C166.17 66.3704 219.501 69.1004 138.869 69.1004Z" fill="white"/>
<path d="M113.283 46.7831H109.436V59.5131C109.436 60.2478 109.274 60.7909 108.946 61.146C108.622 61.5012 108.2 61.6768 107.685 61.6768C107.163 61.6768 106.733 61.4972 106.405 61.1379C106.076 60.7788 105.91 60.2396 105.91 59.5131V46.7831H102.063C101.459 46.7831 101.013 46.6483 100.722 46.383C100.43 46.1134 100.28 45.7582 100.28 45.3173C100.28 44.8639 100.434 44.5049 100.738 44.2392C101.042 43.9739 101.483 43.8433 102.063 43.8433H113.283C113.895 43.8433 114.345 43.9781 114.645 44.2516C114.941 44.5251 115.091 44.8803 115.091 45.3173C115.091 45.7582 114.937 46.1134 114.637 46.383C114.337 46.6483 113.887 46.7831 113.283 46.7831H113.283ZM121.909 53.8872H120.673V59.5133C120.673 60.2565 120.511 60.7993 120.186 61.1505C119.862 61.5017 119.436 61.6773 118.918 61.6773C118.354 61.6773 117.916 61.4935 117.608 61.126C117.3 60.7585 117.146 60.2239 117.146 59.5133V46.0199C117.146 45.2562 117.316 44.7013 117.657 44.3582C117.997 44.0152 118.549 43.8438 119.307 43.8438H125.042C125.833 43.8438 126.51 43.8765 127.073 43.946C127.637 44.0152 128.143 44.15 128.593 44.3582C129.141 44.5909 129.623 44.9216 130.045 45.3505C130.462 45.7833 130.782 46.2853 130.997 46.8529C131.216 47.4247 131.325 48.0289 131.325 48.6699C131.325 49.9762 130.961 51.0216 130.227 51.8056C129.493 52.5854 128.382 53.1406 126.895 53.4673C127.519 53.8021 128.119 54.296 128.691 54.9492C129.258 55.6026 129.769 56.3005 130.215 57.0355C130.661 57.7745 131.009 58.4361 131.261 59.0321C131.508 59.6241 131.634 60.0322 131.634 60.257C131.634 60.4855 131.561 60.7143 131.415 60.9431C131.269 61.1716 131.07 61.3511 130.815 61.482C130.563 61.6125 130.268 61.6778 129.935 61.6778C129.542 61.6778 129.209 61.5841 128.938 61.3961C128.67 61.2084 128.439 60.9715 128.245 60.6859C128.05 60.4002 127.787 59.9753 127.454 59.4204L126.04 57.0524C125.533 56.1868 125.079 55.5254 124.681 55.0721C124.28 54.6148 123.875 54.3044 123.461 54.137C123.052 53.9696 122.533 53.888 121.909 53.888L121.909 53.8872ZM123.928 46.5135H120.673V51.3394H123.83C124.677 51.3394 125.391 51.2659 125.971 51.119C126.546 50.9718 126.988 50.7188 127.292 50.3634C127.596 50.0083 127.75 49.5184 127.75 48.8979C127.75 48.408 127.629 47.9791 127.382 47.6076C127.138 47.2362 126.798 46.9587 126.36 46.7747C125.951 46.5991 125.14 46.5133 123.928 46.5133L123.928 46.5135ZM142.323 43.5495C144.131 43.5495 145.679 43.917 146.972 44.656C148.265 45.3907 149.246 46.4401 149.911 47.7996C150.576 49.159 150.908 50.7554 150.908 52.5885C150.908 53.944 150.726 55.1769 150.361 56.2834C149.996 57.3938 149.453 58.3534 148.723 59.1658C147.994 59.9782 147.102 60.599 146.04 61.0315C144.978 61.4604 143.766 61.6768 142.396 61.6768C141.034 61.6768 139.814 61.4564 138.74 61.0113C137.661 60.5703 136.765 59.9458 136.044 59.1413C135.323 58.3371 134.779 57.3696 134.41 56.2344C134.042 55.1037 133.859 53.8788 133.859 52.564C133.859 51.2167 134.05 49.9838 134.435 48.8571C134.82 47.7343 135.375 46.7789 136.105 45.987C136.83 45.1991 137.718 44.5949 138.764 44.1784C139.806 43.758 140.993 43.5498 142.323 43.5498L142.323 43.5495ZM147.333 52.564C147.333 51.2822 147.126 50.1676 146.717 49.2246C146.303 48.2855 145.716 47.5753 144.954 47.0893C144.192 46.6075 143.312 46.3666 142.323 46.3666C141.621 46.3666 140.969 46.5014 140.373 46.7668C139.773 47.0364 139.258 47.4242 138.828 47.9343C138.399 48.4445 138.058 49.098 137.807 49.8901C137.56 50.6862 137.434 51.5763 137.434 52.5643C137.434 53.5647 137.56 54.4629 137.807 55.2711C138.058 56.0754 138.411 56.7451 138.865 57.2756C139.319 57.8063 139.842 58.2025 140.43 58.4637C141.022 58.7291 141.666 58.8599 142.371 58.8599C143.275 58.8599 144.102 58.6314 144.86 58.1781C145.614 57.725 146.214 57.0229 146.664 56.0714C147.11 55.1242 147.333 53.9525 147.333 52.5643V52.564ZM156.887 59.5131V53.9525L152.635 47.3178C152.262 46.7176 151.998 46.2524 151.844 45.9175C151.69 45.5826 151.613 45.2928 151.613 45.0438C151.613 44.6396 151.772 44.2885 152.084 43.9904C152.396 43.6964 152.781 43.5495 153.243 43.5495C153.725 43.5495 154.09 43.6882 154.341 43.9618C154.589 44.2355 154.962 44.7823 155.46 45.6032L158.715 50.9229L162.007 45.6032C162.201 45.2767 162.367 45.0032 162.505 44.7787C162.639 44.5583 162.785 44.3498 162.951 44.1539C163.113 43.9581 163.292 43.807 163.49 43.7048C163.689 43.6027 163.928 43.5498 164.216 43.5498C164.658 43.5498 165.026 43.6967 165.323 43.9865C165.622 44.2766 165.769 44.6154 165.769 44.995C165.769 45.3052 165.696 45.6195 165.546 45.9299C165.396 46.2403 165.136 46.6689 164.771 47.2201L160.414 53.9527V59.5133C160.414 60.2402 160.247 60.7791 159.915 61.1382C159.583 61.4975 159.157 61.677 158.647 61.677C158.124 61.677 157.698 61.5014 157.374 61.1463C157.049 60.7912 156.887 60.2481 156.887 59.5133V59.5131ZM177.808 59.3946L176.977 57.194H169.899L169.068 59.4393C168.744 60.3173 168.468 60.9091 168.237 61.2153C168.01 61.5215 167.633 61.6768 167.11 61.6768C166.668 61.6768 166.276 61.5136 165.935 61.1869C165.594 60.8601 165.424 60.4887 165.424 60.0764C165.424 59.8355 165.465 59.5865 165.542 59.3332C165.623 59.0758 165.753 58.7248 165.935 58.2676L170.386 46.8847C170.516 46.558 170.666 46.1663 170.844 45.7087C171.022 45.2475 171.213 44.8679 171.416 44.5657C171.618 44.2634 171.882 44.0186 172.21 43.8309C172.538 43.6432 172.944 43.5492 173.426 43.5492C173.921 43.5492 174.33 43.6432 174.659 43.8309C174.987 44.0186 175.25 44.2598 175.453 44.5533C175.656 44.8474 175.826 45.1659 175.964 45.5047C176.102 45.8435 176.28 46.2969 176.491 46.8602L181.039 58.1736C181.395 59.035 181.574 59.6597 181.574 60.0517C181.574 60.4558 181.407 60.8315 181.071 61.1703C180.735 61.5091 180.325 61.6765 179.851 61.6765C179.575 61.6765 179.336 61.6276 179.138 61.5254C178.943 61.4275 178.777 61.2927 178.639 61.1213C178.505 60.9499 178.363 60.6846 178.21 60.3334C178.051 59.9782 177.921 59.6639 177.808 59.3943L177.808 59.3946ZM170.827 54.5237H176.028L173.405 47.2973L170.827 54.5237Z" fill="white"/>
<path fill-rule="evenodd" clip-rule="evenodd" d="M91.689 61.15C78.9944 68.0795 78.3527 82.5791 58.4079 86.1665C40.2356 89.4352 22.7067 76.3103 19.2565 56.8515C16.2313 39.7904 25.0342 23.5228 39.4978 17.5715C41.5294 16.7357 49.4761 7.27281 56.4347 7.13249C64.499 6.96953 53.2637 12.8984 58.3969 21.4907C63.2167 29.5591 84.2416 33.9126 85.0646 45.0143C85.9972 57.5955 78.1533 56.8728 70.6149 52.8204C68.1928 51.5189 63.9571 51.3307 60.9884 52.1894C64.0042 53.274 64.2603 54.5108 64.8607 57.427C65.6843 61.4269 64.6885 60.8986 64.5897 60.5692C64.4909 60.2399 61.5125 53.9848 58.1768 53.7276C51.6073 53.2214 50.0425 43.8478 51.2328 38.6708C51.5993 37.0809 53.6299 41.0459 53.7363 43.3407C54.3523 56.6335 63.5016 46.553 70.1513 49.9064C74.1603 51.9283 79.6481 54.3979 81.3975 52.5553C83.1179 50.7441 83.1082 47.4394 82.679 44.9866C81.9919 39.2518 74.0445 35.4577 66.7868 31.2832C62.3549 28.7343 58.1841 25.7505 56.0646 22.9478C52.1753 17.8056 56.0241 9.82432 56.0241 9.82432C51.4058 9.54316 43.2054 19.2864 41.1397 20.033C26.4846 25.3309 18.7473 40.7345 21.5326 56.4421C24.7441 74.5552 40.996 86.3842 57.9758 83.7295C74.941 81.0769 76.1864 65.99 90.2284 58.6051C91.4299 59.036 91.735 60.0872 91.689 61.15Z" fill="white"/>
<path d="M92.0265 61.7793C87.1688 64.4311 84.0869 68.2626 80.9671 72.1409C75.9855 78.3338 70.9083 84.646 58.5342 86.8716C49.2482 88.5415 40.1283 86.0245 32.8907 80.6053C25.6645 75.1947 20.3154 66.8907 18.5579 56.9772C17.0307 48.3643 18.4638 39.9466 22.0917 32.9065C25.7904 25.7282 31.7741 19.9799 39.2323 16.9114C39.6933 16.7216 40.7216 15.8099 42.0601 14.6223C45.5976 11.4845 51.1897 6.52444 56.422 6.41888C59.2103 6.3628 60.1359 7.03885 60.1618 8.33567C60.1772 9.11045 59.7692 9.99974 59.2699 11.0886C58.1664 13.4932 56.5514 17.0148 59.0065 21.1238C60.9064 24.3045 65.6143 26.9676 70.5083 29.7355C77.6926 33.799 85.2644 38.0817 85.7743 44.9609C86.0404 48.5528 85.6042 51.1325 84.6656 52.904C84.1096 53.9536 83.3799 54.7234 82.5165 55.2523C81.6566 55.7788 80.6751 56.0621 79.6098 56.1421C76.8713 56.3477 73.5382 55.1999 70.2825 53.4497C69.19 52.8627 67.6703 52.5196 66.0689 52.4146C65.1156 52.3519 64.1391 52.3751 63.2107 52.482C63.7345 52.8463 64.1221 53.2547 64.4287 53.7351C65.0134 54.652 65.2395 55.7462 65.5555 57.2815C65.9706 59.2949 65.9374 60.3087 65.7725 60.7813C65.67 61.0745 65.5072 61.2646 65.3211 61.3778L65.2468 61.417C65.0032 61.5381 64.757 61.5305 64.5351 61.4463C64.2416 61.3338 63.9914 61.0358 63.913 60.7763L63.912 60.7728C63.8506 60.5738 62.6247 57.9941 60.8811 56.1339C60.0279 55.2236 59.07 54.5138 58.1254 54.4409C57.7432 54.4117 57.3731 54.3538 57.0163 54.2706C54.2776 53.6319 52.4624 51.5116 51.3902 48.884C50.3549 46.347 50.0159 43.3248 50.2109 40.7553C50.271 39.96 50.3834 39.2018 50.542 38.5111C50.6286 38.1359 50.8005 37.8813 51.0392 37.731C51.4391 37.4762 51.8502 37.5517 52.2494 37.8829C52.4577 38.0561 52.6728 38.3186 52.8793 38.6406C53.5928 39.7534 54.3775 41.8389 54.4457 43.3092C54.6956 48.7016 56.3984 49.8357 58.7103 49.7272C59.6991 49.6806 60.85 49.4255 62.0497 49.1596C64.779 48.5547 67.749 47.8963 70.4694 49.2678C72.4467 50.2651 74.7858 51.3721 76.8284 51.9968C78.6777 52.5623 80.2368 52.745 80.8847 52.0624L80.9219 52.0258C81.546 51.3487 81.902 50.407 82.0761 49.3779C82.3137 47.9737 82.2091 46.4173 81.9802 45.1091L81.9742 45.0686C81.4075 40.3444 75.2432 36.8725 68.9194 33.3111C68.0708 32.8333 67.22 32.3539 66.4374 31.904C64.057 30.5348 61.748 29.0392 59.7814 27.5107C58.0234 26.1439 56.5336 24.7457 55.5011 23.381C52.2755 19.1162 53.9823 13.1291 54.912 10.6537C52.1359 11.3445 48.2819 14.8606 45.3879 17.5005C43.6289 19.1056 42.2028 20.4067 41.3795 20.7039C34.3152 23.2575 28.8956 28.2215 25.5468 34.4403C22.1097 40.8225 20.853 48.5297 22.2331 56.3161C23.7972 65.1379 28.5158 72.435 34.9062 77.2197C41.3625 82.054 49.5269 84.3285 57.8682 83.0243C67.3582 81.5409 71.8322 76.0022 76.5286 70.1881C80.1048 65.7608 83.8072 61.1777 89.9012 57.9728C90.0823 57.8775 90.2859 57.8691 90.4647 57.9325C91.1877 58.1897 91.6699 58.6275 91.9773 59.1627C92.3252 59.769 92.4282 60.4788 92.3981 61.1809C92.3872 61.4415 92.2382 61.6634 92.0259 61.7793H92.0265ZM79.8672 71.2403C82.9975 67.3488 86.0911 63.5034 90.9789 60.7302C90.9579 60.4161 90.8895 60.1215 90.7502 59.8791C90.6419 59.6908 90.4822 59.5252 90.2564 59.3981C84.6005 62.4595 81.0554 66.8478 77.6296 71.0889C72.7572 77.1205 68.116 82.8667 58.0856 84.4346C49.3551 85.7996 40.8136 83.4216 34.063 78.367C27.3898 73.3706 22.4642 65.76 20.8342 56.568C19.3961 48.457 20.7098 40.4205 24.298 33.7582C27.8062 27.2438 33.4898 22.0412 40.9027 19.3615C41.4618 19.1596 42.7946 17.9439 44.4389 16.4436C47.9034 13.2829 52.6696 8.93459 56.0349 9.10992C56.1355 9.11124 56.2374 9.13388 56.3342 9.181C56.687 9.35264 56.8349 9.77992 56.6645 10.1351C56.6543 10.1566 53.0063 17.7227 56.6303 22.5141C57.5854 23.7769 58.9858 25.0874 60.6492 26.3808C62.5594 27.8653 64.8114 29.3235 67.1387 30.662C67.9965 31.1553 68.8052 31.611 69.6095 32.0638C76.2427 35.7995 82.7086 39.4414 83.3825 44.8706C83.6331 46.3091 83.7453 48.0337 83.4771 49.6193C83.2607 50.8993 82.7928 52.0963 81.9517 53.004L81.9138 53.0477C80.8126 54.2074 78.7519 54.0763 76.4183 53.3629C74.2779 52.7081 71.8678 51.569 69.8369 50.5447C67.5726 49.4032 64.854 50.0055 62.3563 50.5594C61.1082 50.8361 59.9106 51.1017 58.7725 51.1552C55.6363 51.3023 53.3341 49.9334 53.0301 43.3721C52.9757 42.2064 52.3678 40.5537 51.7815 39.5694C51.7138 39.9803 51.6623 40.4131 51.6283 40.8625C51.448 43.2403 51.7561 46.0234 52.7023 48.3422C53.6116 50.5707 55.1125 52.3604 57.3337 52.8785C57.618 52.9445 57.9176 52.9909 58.2317 53.0151C59.5875 53.1196 60.8458 54.0142 61.9153 55.1557C62.9075 56.2145 63.7559 57.516 64.3519 58.5554C64.3051 58.27 64.2447 57.9444 64.1684 57.5734V57.5705C63.8848 56.1916 63.6817 55.2094 63.235 54.5086C62.8095 53.8412 62.0957 53.3479 60.7517 52.8645C60.5431 52.789 60.3722 52.617 60.3073 52.3862C60.2002 52.0063 60.4189 51.6101 60.7961 51.5021C62.3853 51.0422 64.3161 50.8682 66.1588 50.989C67.9461 51.1062 69.6712 51.5042 70.9506 52.1919C73.9891 53.8254 77.059 54.9003 79.5057 54.7165C80.3541 54.6531 81.1229 54.4351 81.7789 54.0336C82.4316 53.6338 82.9878 53.0441 83.4167 52.2337C84.2314 50.696 84.6041 48.3757 84.359 45.0683C83.9057 38.9541 76.6753 34.8646 69.8152 30.9842C64.7554 28.1228 59.8886 25.3696 57.7908 21.8578C54.9494 17.1022 56.7513 13.1741 57.9824 10.491C58.4074 9.56352 58.755 8.80612 58.7464 8.36463C58.7391 7.99738 58.1722 7.81178 56.451 7.84627C51.7444 7.94131 46.3882 12.6921 43 15.6972C41.5671 16.9682 40.466 17.9444 39.7663 18.2324C32.6309 21.168 26.9013 26.6778 23.3539 33.5618C19.8653 40.3318 18.4881 48.4323 19.9586 56.726C21.6508 66.271 26.792 74.2599 33.7358 79.4588C40.6672 84.6489 49.3988 87.0601 58.2851 85.4619C70.144 83.3289 75.0521 77.2271 79.868 71.2403H79.8672Z" fill="white"/>
<path fill-rule="evenodd" clip-rule="evenodd" d="M59.0704 32.5936L64.5175 35.941C64.7864 36.1082 63.5812 36.2803 63.2874 36.3338L60.2672 36.865C59.9175 36.929 58.9946 37.1517 58.9431 36.7866L58.3129 32.3278C58.2672 31.9995 58.7862 32.4173 59.0704 32.5939V32.5936Z" fill="white"/>
<path d="M59.2118 32.3989L64.6552 35.7446C64.8246 35.8544 64.8471 35.9889 64.7551 36.1382C64.7321 36.1759 64.7002 36.2046 64.6641 36.2235C64.4158 36.3862 63.8099 36.4876 63.4754 36.5436C62.3841 36.7319 61.2822 36.9154 60.1951 37.1223C60.079 37.1452 59.9337 37.1739 59.7795 37.1957C59.2954 37.2652 58.7742 37.2518 58.7133 36.8201L58.0821 32.352C58.0515 32.1114 58.1511 31.9971 58.3385 31.97C58.5304 31.9424 58.798 32.123 59.0307 32.2799L59.212 32.3986L59.2118 32.3989ZM64.0875 35.9529C62.2665 34.8338 60.3582 33.7439 58.5884 32.5547L59.1817 36.7529C59.187 36.7911 59.457 36.7606 59.7126 36.7237C59.8516 36.7042 59.993 36.6761 60.1062 36.6542C61.1946 36.446 62.3039 36.258 63.3975 36.074C63.5851 36.0429 63.8758 35.9939 64.0875 35.9529Z" fill="white"/>
<path fill-rule="evenodd" clip-rule="evenodd" d="M25.6948 12.1908C25.6948 12.1908 22.2878 3.56006 29.4736 0C29.4736 0 27.1345 1.3213 28.4761 5.157C29.8175 8.99296 34.3216 9.14038 35.9824 10.7829C37.6429 12.4253 37.5237 14.8531 37.6599 15.8769C37.6599 15.8769 36.9419 12.0984 33.8208 11.0682C30.6997 10.0384 27.415 8.52488 27.0056 5.26757C27.0056 5.26757 25.5545 6.4625 25.5793 8.47592C25.6044 10.4893 25.584 9.77747 25.6948 12.1905V12.1908Z" fill="white"/>
<path fill-rule="evenodd" clip-rule="evenodd" d="M29.1144 19.7551C29.1144 19.7551 27.0793 10.9372 15.4815 12.8338C15.4815 12.8338 8.31586 13.4369 5.90596 9.83261C5.90596 9.83261 7.02988 15.9389 14.9757 15.4803C14.9757 15.4803 17.5346 16.1161 18.2673 18.2951C18.2673 18.2951 13.6947 17.4495 10.0062 20.228C6.31789 23.0067 2.50127 21.3021 1.73047 20.0913C1.73047 20.0913 3.97883 26.9872 12.4137 26.7584C12.4137 26.7584 6.82 32.2734 10.6319 38.1802C10.6319 38.1802 12.0616 40.3952 14.9088 40.8404C14.9088 40.8404 11.0995 38.3363 12.6882 35.6924C14.2768 33.0482 16.8302 33.2069 17.1687 33.3741C17.1687 33.3741 14.6208 31.858 11.7122 34.5948C11.7122 34.5948 11.3052 32.9052 12.9624 31.7835C12.9624 31.7835 10.8572 32.2653 10.6445 33.178C10.6445 33.178 11.8094 26.2174 19.1614 26.1718C19.1614 26.1718 18.0012 24.2503 13.3163 25.0332C8.63134 25.8159 8.73484 24.6157 8.73484 24.6157C8.73484 24.6157 11.657 24.587 13.0674 23.6169C13.0674 23.6169 10.4171 23.992 9.16742 22.8145C9.16742 22.8145 13.5275 19.6672 16.1258 19.7062C18.7241 19.7451 21.6189 21.6385 21.7637 22.2345C21.7637 22.2345 19.6865 16.8053 17.8444 15.9073C17.8444 15.9073 19.5433 15.6638 20.2158 16.2122C20.2158 16.2122 19.9356 14.8719 18.3979 14.3902C18.3979 14.3902 22.12 14.0216 24.7625 15.5901C27.4047 17.1583 27.199 17.0857 29.1139 19.7549L29.1144 19.7551Z" fill="white"/>
<path fill-rule="evenodd" clip-rule="evenodd" d="M11.2959 40.8751C11.2959 40.8751 8.10817 41.5398 7.42467 45.0364C6.74117 48.5331 5.38515 52.811 0 52.6281C0 52.6281 2.6156 57.1295 8.07707 55.3754C8.07707 55.3754 3.20082 66.3186 15.4113 71.6881C15.4113 71.6881 23.7037 75.9147 21.2857 83.1083C21.2857 83.1083 25.9362 78.7195 20.7768 71.9829C15.6175 65.2464 16.1356 62.2765 16.4362 60.7531C16.4362 60.7531 14.3433 65.4059 17.8711 69.9598C17.8711 69.9598 20.1597 72.5892 20.4561 73.6194C20.4561 73.6194 18.6654 71.6162 14.6635 68.9023C14.6635 68.9023 11.2131 65.6286 11.3513 62.5306C11.3513 62.5306 10.4041 64.376 10.5011 65.1719C10.5011 65.1719 7.02424 60.1518 10.0821 54.6325C10.0821 54.6325 14.9139 52.1587 14.8052 49.212C14.8052 49.212 10.3048 54.6736 5.34594 53.0369C5.34594 53.0369 8.25925 49.9523 8.87296 48.2311C9.48667 46.5099 11.8202 44.7121 12.8924 44.585C12.8924 44.585 11.332 43.658 9.8986 45.007C9.8986 45.007 9.76347 43.3445 10.2651 42.427C10.7666 41.5095 11.2954 40.8751 11.2954 40.8751H11.2959Z" fill="white"/>
<path d="M111.123 33.2892C111.123 33.6799 111.03 34.1022 110.837 34.5558C110.648 35.0094 110.347 35.4543 109.937 35.8908C109.529 36.3299 109.005 36.6837 108.37 36.9575C107.733 37.2287 106.991 37.3656 106.145 37.3656C105.504 37.3656 104.921 37.3058 104.394 37.1829C103.871 37.0602 103.392 36.8691 102.964 36.6095C102.537 36.3528 102.14 36.0103 101.781 35.5883C101.461 35.2034 101.186 34.7754 100.959 34.2991C100.733 33.8226 100.563 33.3122 100.45 32.773C100.337 32.2312 100.28 31.6578 100.28 31.0502C100.28 30.0662 100.421 29.1819 100.707 28.4031C100.991 27.6218 101.401 26.9542 101.931 26.4005C102.463 25.8474 103.083 25.4251 103.797 25.1342C104.511 24.8462 105.272 24.7007 106.079 24.7007C107.065 24.7007 107.94 24.8973 108.71 25.2938C109.478 25.6876 110.067 26.1781 110.478 26.7601C110.885 27.3419 111.092 27.8898 111.092 28.4089C111.092 28.6943 110.99 28.9423 110.792 29.1619C110.594 29.3788 110.353 29.4872 110.07 29.4872C109.755 29.4872 109.517 29.4101 109.362 29.2619C109.203 29.1108 109.027 28.8509 108.835 28.4832C108.512 27.8758 108.135 27.4222 107.702 27.1198C107.266 26.8204 106.733 26.669 106.096 26.669C105.082 26.669 104.278 27.0568 103.677 27.83C103.077 28.6059 102.777 29.7068 102.777 31.1331C102.777 32.0859 102.91 32.8788 103.176 33.512C103.44 34.1454 103.816 34.6158 104.304 34.9296C104.791 35.2405 105.36 35.3974 106.014 35.3974C106.722 35.3974 107.32 35.2205 107.81 34.867C108.3 34.5131 108.668 33.994 108.917 33.3066C109.022 32.9844 109.152 32.7219 109.308 32.5163C109.461 32.3139 109.71 32.2112 110.053 32.2112C110.347 32.2112 110.599 32.3139 110.809 32.5221C111.018 32.7275 111.124 32.9841 111.124 33.2895L111.123 33.2892ZM116.643 31.9229H115.779V35.8537C115.779 36.3728 115.666 36.7522 115.439 36.9975C115.213 37.2429 114.915 37.3656 114.553 37.3656C114.159 37.3656 113.853 37.2371 113.638 36.9804C113.423 36.7237 113.315 36.3502 113.315 35.8537V26.4263C113.315 25.8927 113.434 25.5049 113.672 25.2653C113.91 25.0258 114.295 24.906 114.825 24.906H118.832C119.384 24.906 119.857 24.9286 120.251 24.9773C120.644 25.0258 120.998 25.12 121.313 25.2653C121.695 25.428 122.032 25.6592 122.327 25.9585C122.618 26.261 122.842 26.6117 122.992 27.0081C123.145 27.4075 123.222 27.8298 123.222 28.2776C123.222 29.1903 122.967 29.9206 122.454 30.4682C121.942 31.0131 121.166 31.4011 120.126 31.6291C120.562 31.8629 120.981 32.208 121.381 32.6645C121.777 33.121 122.134 33.6088 122.446 34.1222C122.757 34.6385 123.001 35.1005 123.176 35.517C123.349 35.9305 123.437 36.2156 123.437 36.3728C123.437 36.5326 123.386 36.6921 123.284 36.8519C123.182 37.0117 123.043 37.1371 122.865 37.2284C122.689 37.3195 122.483 37.3653 122.25 37.3653C121.976 37.3653 121.743 37.2998 121.554 37.1684C121.367 37.037 121.205 36.8717 121.069 36.6721C120.934 36.4726 120.75 36.1759 120.517 35.7879L119.529 34.1333C119.175 33.5286 118.858 33.0665 118.58 32.7498C118.3 32.4302 118.017 32.2136 117.728 32.0967C117.442 31.9795 117.079 31.9227 116.643 31.9227L116.643 31.9229ZM118.053 26.7715H115.779V30.1433H117.985C118.577 30.1433 119.076 30.092 119.481 29.9893C119.883 29.8866 120.191 29.7097 120.404 29.4617C120.616 29.2135 120.724 28.8712 120.724 28.4376C120.724 28.0954 120.639 27.7958 120.466 27.5362C120.296 27.2767 120.058 27.0826 119.753 26.9544C119.467 26.8317 118.9 26.7717 118.053 26.7717L118.053 26.7715ZM133.567 26.8231H128.016V29.8353H133.128C133.505 29.8353 133.785 29.9208 133.969 30.0891C134.156 30.2573 134.247 30.4826 134.247 30.7593C134.247 31.036 134.156 31.2643 133.975 31.4383C133.791 31.6123 133.511 31.7007 133.128 31.7007H128.016V35.1921H133.757C134.145 35.1921 134.436 35.2834 134.632 35.4633C134.83 35.6428 134.929 35.8853 134.929 36.1848C134.929 36.4729 134.83 36.7098 134.632 36.8893C134.436 37.0689 134.145 37.1602 133.757 37.1602H127.062C126.526 37.1602 126.141 37.0404 125.906 36.8009C125.671 36.561 125.552 36.1733 125.552 35.6399V26.4266C125.552 26.0699 125.606 25.779 125.711 25.5536C125.816 25.3283 125.98 25.1629 126.204 25.0603C126.428 24.9576 126.714 24.9063 127.062 24.9063H133.567C133.961 24.9063 134.252 24.9947 134.442 25.1687C134.632 25.3456 134.728 25.5765 134.728 25.859C134.728 26.1499 134.632 26.3839 134.442 26.5606C134.252 26.7346 133.961 26.8231 133.567 26.8231ZM144.671 35.7713L144.091 34.2338H139.146L138.566 35.8029C138.339 36.416 138.146 36.8298 137.985 37.0436C137.827 37.2576 137.563 37.3658 137.198 37.3658C136.889 37.3658 136.615 37.2518 136.376 37.0236C136.139 36.7953 136.02 36.5358 136.02 36.2478C136.02 36.0795 136.048 35.9055 136.102 35.7286C136.158 35.5491 136.249 35.3037 136.376 34.9844L139.486 27.0316C139.577 26.8033 139.682 26.5295 139.806 26.2099C139.93 25.8877 140.064 25.6223 140.205 25.4112C140.347 25.2001 140.531 25.0289 140.76 24.8976C140.99 24.7665 141.273 24.7009 141.61 24.7009C141.956 24.7009 142.241 24.7665 142.471 24.8976C142.7 25.0289 142.884 25.1972 143.026 25.4025C143.168 25.6078 143.286 25.8303 143.383 26.067C143.479 26.3039 143.604 26.6203 143.751 27.0139L146.929 34.918C147.178 35.5199 147.303 35.9563 147.303 36.2301C147.303 36.5126 147.186 36.7751 146.951 37.0117C146.716 37.2487 146.43 37.3656 146.099 37.3656C145.906 37.3656 145.739 37.3313 145.6 37.26C145.465 37.1916 145.348 37.0973 145.252 36.9775C145.158 36.8577 145.059 36.6724 144.952 36.427C144.841 36.1788 144.751 35.9592 144.671 35.771L144.671 35.7713ZM139.795 32.3684H143.428L141.596 27.3193L139.795 32.3684H139.795ZM155.518 26.9602H152.831V35.8542C152.831 36.3676 152.717 36.7469 152.488 36.9952C152.261 37.2434 151.967 37.3661 151.607 37.3661C151.242 37.3661 150.942 37.2405 150.712 36.9896C150.483 36.7387 150.367 36.362 150.367 35.8545V26.9605H147.679C147.257 26.9605 146.946 26.8662 146.742 26.6809C146.538 26.4927 146.433 26.2444 146.433 25.9364C146.433 25.6197 146.541 25.3688 146.753 25.1832C146.966 24.9979 147.274 24.9065 147.679 24.9065H155.518C155.946 24.9065 156.26 25.0008 156.47 25.1916C156.677 25.3828 156.781 25.631 156.781 25.9361C156.781 26.2441 156.674 26.4924 156.464 26.6806C156.255 26.866 155.94 26.9602 155.518 26.9602ZM163.363 24.7009C164.626 24.7009 165.708 24.9576 166.611 25.4738C167.515 25.9875 168.2 26.7204 168.665 27.6702C169.129 28.6201 169.361 29.7352 169.361 31.016C169.361 31.9629 169.234 32.8246 168.979 33.5973C168.724 34.3731 168.345 35.0434 167.835 35.6112C167.325 36.1791 166.702 36.6124 165.96 36.9149C165.218 37.2142 164.371 37.3656 163.414 37.3656C162.462 37.3656 161.61 37.2116 160.859 36.9007C160.106 36.5926 159.48 36.1562 158.976 35.5944C158.472 35.0326 158.092 34.3565 157.835 33.5636C157.577 32.7733 157.45 31.9177 157.45 30.9992C157.45 30.0577 157.583 29.1963 157.852 28.4092C158.121 27.6247 158.509 26.9573 159.019 26.4039C159.526 25.8535 160.146 25.4312 160.877 25.1403C161.605 24.8465 162.434 24.7009 163.363 24.7009ZM166.863 30.9992C166.863 30.1033 166.719 29.3248 166.433 28.6659C166.144 28.0098 165.733 27.5133 165.201 27.174C164.669 26.8373 164.054 26.669 163.363 26.669C162.873 26.669 162.417 26.7633 162.001 26.9486C161.582 27.1369 161.222 27.408 160.922 27.7645C160.622 28.1212 160.384 28.5774 160.208 29.1308C160.035 29.6871 159.948 30.3089 159.948 30.9994C159.948 31.6981 160.035 32.3257 160.208 32.8904C160.384 33.4522 160.63 33.92 160.947 34.291C161.265 34.6619 161.63 34.9386 162.041 35.121C162.454 35.3063 162.904 35.3977 163.397 35.3977C164.029 35.3977 164.606 35.2379 165.136 34.9215C165.663 34.6048 166.082 34.114 166.396 33.4496C166.708 32.7877 166.864 31.969 166.864 30.9992H166.863ZM174.779 31.9232H173.915V35.8539C173.915 36.3731 173.802 36.7524 173.575 36.9978C173.349 37.2432 173.052 37.3658 172.689 37.3658C172.295 37.3658 171.99 37.2374 171.774 36.9807C171.559 36.724 171.451 36.3504 171.451 35.8539V26.4266C171.451 25.893 171.57 25.5052 171.808 25.2656C172.046 25.026 172.431 24.9063 172.961 24.9063H176.968C177.521 24.9063 177.993 24.9289 178.387 24.9776C178.781 25.026 179.135 25.1203 179.449 25.2656C179.831 25.4283 180.168 25.6594 180.463 25.9588C180.755 26.2613 180.978 26.6119 181.128 27.0084C181.281 27.4078 181.358 27.83 181.358 28.2778C181.358 29.1906 181.103 29.9208 180.59 30.4684C180.078 31.0134 179.302 31.4014 178.262 31.6294C178.699 31.8632 179.118 32.2083 179.517 32.6648C179.913 33.1213 180.27 33.6091 180.582 34.1225C180.893 34.6387 181.137 35.1007 181.313 35.5172C181.485 35.9308 181.573 36.2159 181.573 36.3731C181.573 36.5329 181.522 36.6924 181.42 36.8522C181.318 37.012 181.18 37.1373 181.001 37.2287C180.826 37.3198 180.619 37.3656 180.387 37.3656C180.112 37.3656 179.88 37.3 179.69 37.1686C179.503 37.0373 179.342 36.872 179.206 36.6724C179.07 36.4729 178.886 36.1762 178.654 35.7881L177.665 34.1335C177.311 33.5288 176.994 33.0668 176.717 32.7501C176.436 32.4305 176.153 32.2138 175.864 32.0969C175.578 31.9798 175.216 31.9229 174.779 31.9229L174.779 31.9232ZM176.189 26.7717H173.915V30.1436H176.121C176.713 30.1436 177.212 30.0922 177.617 29.9895C178.019 29.8869 178.328 29.71 178.54 29.462C178.752 29.2137 178.86 28.8715 178.86 28.4379C178.86 28.0957 178.775 27.7961 178.602 27.5365C178.432 27.2769 178.195 27.0829 177.889 26.9547C177.603 26.832 177.036 26.772 176.19 26.772L176.189 26.7717Z" fill="white"/>
</g>
<defs>
<clipPath id="clip0">
<rect width="181.573" height="87.382" fill="white"/>
</clipPath>
</defs>
</svg>
