<svg width="108" height="60" viewBox="0 0 108 60" fill="none" xmlns="http://www.w3.org/2000/svg">
<path d="M0 3.22079V0.331581H13.559V3.22079H8.48908V17.2646H5.06993V3.22079H0H0ZM15.2804 17.2646V0.331581H23.0149C24.6341 0.331581 25.9429 0.765769 26.9409 1.63415C27.9393 2.50253 28.4383 3.63914 28.4383 5.04431C28.4383 7.20734 27.4087 8.57292 25.3493 9.14139V9.21233C26.1509 9.44922 26.7524 9.82402 27.1532 10.3374C27.5539 10.8504 27.8095 11.6122 27.9196 12.6228C27.9511 13.0016 27.9863 13.4477 28.0257 13.961C28.0651 14.4741 28.0963 14.8805 28.12 15.1808C28.1436 15.4807 28.1752 15.7806 28.2143 16.0808C28.2537 16.3807 28.3085 16.6137 28.3795 16.7793C28.4501 16.9452 28.5408 17.0518 28.6509 17.099V17.265H25.373C25.3102 17.2333 25.255 17.1742 25.208 17.0874C25.1607 17.0007 25.1216 16.8783 25.0901 16.7202C25.0586 16.5625 25.0313 16.4005 25.0077 16.2349C24.984 16.069 24.9603 15.8558 24.937 15.5955C24.9134 15.3349 24.8937 15.1062 24.8782 14.9086C24.8625 14.7113 24.8427 14.4506 24.8194 14.127C24.7958 13.8033 24.7761 13.547 24.7606 13.3573C24.619 11.4311 23.5188 10.468 21.4591 10.468H18.7002V17.265H15.2811L15.2804 17.2646ZM18.6996 3.10234V7.81507H22.3309C23.2271 7.81507 23.9147 7.60194 24.3943 7.17567C24.8736 6.7494 25.1134 6.18884 25.1134 5.49434C25.1134 4.78367 24.8854 4.20761 24.4295 3.7655C23.9735 3.32339 23.3056 3.10234 22.4252 3.10234H18.6996ZM43.9309 15.1686C42.4533 16.8186 40.4881 17.6434 38.0358 17.6434C35.5834 17.6434 33.6143 16.8186 32.1288 15.1686C30.6433 13.5186 29.9005 11.407 29.9005 8.83357C29.9005 6.26011 30.6433 4.14426 32.1288 2.48669C33.6143 0.828786 35.5834 0 38.0358 0C40.4881 0 42.4533 0.828786 43.9309 2.48669C45.4086 4.14459 46.1474 6.26011 46.1474 8.83357C46.1474 11.407 45.4086 13.5189 43.9309 15.1686ZM34.6048 13.1438C35.4143 14.2649 36.566 14.8254 38.0594 14.8254C39.5529 14.8254 40.6925 14.2688 41.4786 13.1557C42.2647 12.0425 42.6576 10.602 42.6576 8.83357C42.6576 7.06514 42.2647 5.6207 41.4786 4.4996C40.6925 3.37849 39.5529 2.81827 38.0594 2.81827C36.566 2.81827 35.4143 3.37882 34.6048 4.4996C33.795 5.6207 33.3903 7.06514 33.3903 8.83357C33.3903 10.5862 33.795 12.0227 34.6048 13.1438ZM51.0051 17.2646V10.7284L45.3928 0.331581H49.1185L51.6651 5.35214L52.7732 7.76789H52.8205C53.2449 6.83617 53.622 6.03114 53.9522 5.35214L56.4518 0.331581H60.0362L54.4239 10.7284V17.2646H51.0048H51.0051ZM58.0793 17.2646L63.9511 0.331581H67.4882L73.4307 17.2646H69.8699L68.7379 13.6647H62.6542L61.5458 17.2646H58.0793ZM64.9649 6.1575L63.4557 11.0362H67.9126L66.4035 6.1575L65.7195 3.55237H65.6722C65.389 4.68898 65.1535 5.55736 64.9649 6.1575ZM0.8722 38.4548V21.5217H5.6826L8.06431 30.0237C8.23711 30.6552 8.41418 31.354 8.59486 32.1198C8.77554 32.8855 8.91319 33.4893 9.00747 33.9314L9.12541 34.5946H9.17271C9.47133 32.9683 9.81726 31.4447 10.2102 30.0237L12.5919 21.5217H17.4732V38.4548H14.2896V28.7449L14.4312 25.24H14.3839C14.1323 26.5664 13.8885 27.64 13.653 28.4608L10.7525 38.4548H7.47496L4.64516 28.4608L3.91422 25.24H3.86692C3.9612 26.6611 4.0085 27.8293 4.0085 28.7449V38.4548H0.8722ZM20.0668 38.4548V21.5217H32.4705V24.4109H23.4863V28.2002H31.3621V31.0184H23.4863V35.5893H32.5414V38.4548H20.0672H20.0668ZM33.5549 38.4548L39.4267 21.5217H42.9638L48.9062 38.4548H45.3455L44.2135 34.8549H38.1297L37.0213 38.4548H33.5549ZM40.4405 27.3476L38.9313 32.2263H43.3879L41.8787 27.3476L41.1948 24.7425H41.1478C40.8646 25.8791 40.6291 26.7475 40.4402 27.3476H40.4405ZM50.3208 38.4548V21.5217H53.7873L59.3996 30.9709C59.5566 31.2395 59.7337 31.5711 59.9301 31.9657C60.1266 32.3603 60.28 32.6919 60.39 32.9604L60.5786 33.3395H60.6259C60.5632 32.1712 60.5316 31.1923 60.5316 30.4028V21.5217H63.9038V38.4548H60.6026L54.8487 29.1002C54.6917 28.832 54.5107 28.504 54.3063 28.1174C54.102 27.7307 53.945 27.4031 53.8346 27.1345L53.646 26.7554H53.5987C53.6615 27.9395 53.693 28.9264 53.693 29.7159V38.4548H50.3212H50.3208ZM73.0289 38.8335C70.7494 38.8335 68.981 38.3482 67.7234 37.3772C66.4659 36.4062 65.8056 35.0208 65.7425 33.2207H69.091C69.2011 34.2313 69.5588 34.9575 70.1639 35.3996C70.7691 35.8417 71.6771 36.0628 72.8876 36.0628C73.8466 36.0628 74.6327 35.8853 75.2457 35.5299C75.8587 35.1746 76.1652 34.6259 76.1652 33.8839C76.1652 33.6157 76.1297 33.3748 76.0591 33.1617C75.9885 32.9485 75.8429 32.7592 75.6228 32.5932C75.4027 32.4273 75.2142 32.2933 75.0568 32.1907C74.8998 32.0881 74.6087 31.9776 74.1843 31.8591C73.7598 31.7407 73.4376 31.6539 73.2175 31.5985C72.9974 31.5434 72.5887 31.4444 71.9911 31.3025C71.2681 31.129 70.6744 30.9789 70.2109 30.8525C69.7471 30.7261 69.2362 30.5288 68.6781 30.2603C68.1199 29.992 67.6797 29.6958 67.3575 29.3721C67.0352 29.0484 66.7642 28.6222 66.5441 28.0933C66.324 27.5644 66.2139 26.9603 66.2139 26.2816C66.2139 24.6554 66.8072 23.4043 67.9941 22.528C69.181 21.6517 70.7411 21.2136 72.6748 21.2136C74.5926 21.2136 76.1254 21.6715 77.2729 22.5871C78.4204 23.5026 79.0571 24.8052 79.1829 26.4948H75.9053C75.8111 25.6739 75.4691 25.0424 74.8794 24.6003C74.2901 24.1582 73.547 23.9371 72.6511 23.9371C71.7234 23.9371 70.9849 24.1186 70.4343 24.4819C69.884 24.8448 69.6091 25.3265 69.6091 25.9263C69.6091 26.5736 69.8801 27.0474 70.4225 27.3473C70.9649 27.6472 71.9198 27.9471 73.2874 28.2474C74.1051 28.4209 74.773 28.5829 75.2917 28.7327C75.8104 28.8828 76.3725 29.0959 76.9776 29.3721C77.5827 29.6482 78.0545 29.9521 78.3925 30.284C78.7306 30.6156 79.0134 31.0538 79.2414 31.5985C79.4694 32.1432 79.5834 32.7707 79.5834 33.4814C79.5834 35.1551 78.9782 36.4653 77.7677 37.4128C76.5571 38.3601 74.9773 38.8339 73.0279 38.8339L73.0289 38.8335ZM8.25255 59.9999C5.87872 59.9999 3.93328 59.1751 2.41621 57.5251C0.899138 55.8751 0.140603 53.7794 0.140603 51.2373C0.140603 48.6796 0.879427 46.5638 2.3574 44.8904C3.83505 43.217 5.79233 42.3799 8.2289 42.3799C10.241 42.3799 11.8563 42.9128 13.0748 43.9785C14.2932 45.0441 14.9966 46.4137 15.1851 48.0874H11.7896C11.6326 47.219 11.2433 46.5321 10.6224 46.027C10.0016 45.5219 9.20359 45.2691 8.2289 45.2691C6.73548 45.2691 5.59555 45.8218 4.80975 46.9271C4.02362 48.0323 3.63072 49.4688 3.63072 51.2373C3.63072 52.9899 4.05121 54.4185 4.8922 55.5237C5.73319 56.629 6.85342 57.1816 8.25255 57.1816C9.24302 57.1816 10.0682 56.9091 10.7285 56.3647C11.3889 55.82 11.7739 55.0978 11.8839 54.1977H15.2324C15.1382 55.7923 14.5173 57.1265 13.3695 58.2001C12.0961 59.4001 10.3905 59.9999 8.25255 59.9999ZM17.0008 59.6446V42.7115H24.7353C26.3546 42.7115 27.6633 43.1457 28.6614 44.0141C29.6597 44.8825 30.1587 46.0191 30.1587 47.4243C30.1587 49.5873 29.1292 50.9529 27.0697 51.5213V51.5923C27.8713 51.8292 28.4728 52.204 28.8736 52.7173C29.2744 53.2304 29.53 53.9922 29.64 55.0028C29.6715 55.3815 29.7067 55.8276 29.7461 56.341C29.7852 56.854 29.8167 57.2605 29.8404 57.5607C29.864 57.8606 29.8956 58.1605 29.9347 58.4608C29.9741 58.7607 30.029 58.9936 30.0999 59.1592C30.1705 59.3252 30.2609 59.4318 30.3709 59.4789V59.6449H27.0934C27.0306 59.6132 26.9754 59.5542 26.9285 59.4674C26.8812 59.3806 26.8421 59.2582 26.8105 59.1005C26.779 58.9425 26.7517 58.7808 26.7281 58.6149C26.7044 58.4489 26.6808 58.2358 26.6574 57.9754C26.6338 57.7148 26.6141 57.4862 26.5986 57.2885C26.5829 57.0912 26.5632 56.8306 26.5398 56.5069C26.5162 56.1833 26.4965 55.9269 26.481 55.7372C26.3394 53.8111 25.2393 52.848 23.1798 52.848H20.421V59.6449H17.0018L17.0008 59.6446ZM20.42 45.4823V50.195H24.0514C24.9475 50.195 25.6351 49.9819 26.1147 49.5556C26.594 49.1293 26.8339 48.5688 26.8339 47.8743C26.8339 47.1636 26.6059 46.5876 26.1499 46.1455C25.6939 45.7033 25.0261 45.4823 24.1456 45.4823H20.42ZM32.3519 59.6446V42.7115H44.7552V45.6007H35.771V49.39H43.6471V52.2083H35.771V56.7791H44.8261V59.6446H32.3519ZM45.8399 59.6446L51.7114 42.7115H55.2485L61.191 59.6446H57.6302L56.4982 56.0447H50.4144L49.306 59.6446H45.8396H45.8399ZM52.7255 48.5374L51.2163 53.4161H55.6729L54.1638 48.5374L53.4798 45.9323H53.4325C53.1496 47.0689 52.9138 47.9373 52.7252 48.5374H52.7255ZM59.6111 45.6007V42.7115H73.1702V45.6007H68.1002V59.6446H64.6811V45.6007H59.6111ZM74.9152 59.6446V42.7115H78.3344V59.6446H74.9152ZM85.3852 59.6446L79.7023 42.7115H83.2867L86.2577 52.5161L86.9887 55.2159H87.036C87.3034 54.1423 87.5468 53.2423 87.7669 52.5161L90.7147 42.7115H94.1811L88.4982 59.6446H85.3855H85.3852ZM95.5251 59.6446V42.7115H107.929V45.6007H98.9445V49.39H106.821V52.2083H98.9445V56.7791H108V59.6446H95.5254H95.5251Z" fill="#FEFEFE"/>
</svg>
