<svg width="149" height="62" viewBox="0 0 149 62" fill="none" xmlns="http://www.w3.org/2000/svg">
<g clip-path="url(#clip0)">
<path d="M0.772166 45.3703C1.17241 46.2959 1.71504 47.1937 2.36992 48.0235C7.60641 54.6558 16.3527 61.0641 25.0669 61.8831C34.2218 62.7434 35.1089 50.7832 35.9613 44.418C36.5816 39.7842 38.4109 27.0741 31.1142 26.3629C26.6743 25.9296 21.6662 28.1368 17.5335 29.5446C12.5902 31.229 7.73469 33.3067 3.3237 36.1045C-0.264356 38.3802 -0.657541 42.0586 0.773449 45.3703H0.772166ZM29.6678 48.8565C29.4394 49.7732 28.8468 50.5637 27.8885 51.2261C26.9309 51.8884 25.7763 52.3262 24.4268 52.5393C23.0773 52.7531 21.738 52.6986 20.4103 52.375C19.5033 52.1549 18.9132 51.9227 18.6387 51.6784C18.3642 51.4348 18.2628 51.1671 18.3353 50.8752C18.3821 50.6874 18.706 50.4184 19.3077 50.067C19.9093 49.7155 20.2942 49.5607 20.4629 49.6013C20.7156 49.6628 20.8298 49.7459 20.8035 49.85C20.7836 49.9331 20.7092 50.0042 20.5835 50.0619C20.4577 50.1196 20.3865 50.1799 20.3705 50.2421C20.35 50.3252 20.4609 50.4413 20.7034 50.5885C20.9465 50.7363 21.2576 50.8562 21.6373 50.9482C22.5224 51.1632 23.4531 51.2184 24.4294 51.1131C25.4056 51.0078 26.2433 50.7636 26.9418 50.381C27.6403 49.9984 28.0623 49.515 28.2073 48.9307C28.3478 48.368 28.2798 47.8757 28.0046 47.455C27.7288 47.0344 27.342 46.6804 26.843 46.393C26.3446 46.1062 25.4992 45.6628 24.3069 45.0632C22.9932 44.4117 21.9817 43.8731 21.2717 43.4461C20.5617 43.0191 20.0209 42.5662 19.6476 42.0891C19.275 41.6113 19.1582 41.0905 19.2981 40.5277C19.5469 39.5273 20.2698 38.7304 21.4686 38.1372C22.6668 37.544 23.9682 37.1634 25.3735 36.9972C26.7789 36.8303 27.8288 36.8316 28.5248 37.001C29.2412 37.1748 29.5478 37.4711 29.4439 37.8879C29.3817 38.1379 29.2291 38.3935 28.9853 38.6556C28.7416 38.9169 28.451 39.0064 28.1136 38.9245C27.9866 38.8935 27.8616 38.8129 27.7371 38.6835C27.6133 38.554 27.4774 38.4709 27.3298 38.4354C26.9084 38.3326 26.2099 38.306 25.2363 38.3567C24.2626 38.4075 23.3396 38.6143 22.4666 38.9766C21.5937 39.3395 21.062 39.9073 20.8702 40.6781C20.7457 41.1787 20.9433 41.619 21.4635 42.0002C21.9837 42.3809 22.99 42.9405 24.4826 43.6796C24.6571 43.7881 24.8354 43.8807 25.0169 43.9587C25.1984 44.0367 25.3588 44.1135 25.4954 44.1909C27.0252 44.9611 28.163 45.6913 28.9077 46.381C29.6524 47.0706 29.9057 47.8953 29.6671 48.8546L29.6678 48.8565ZM16.0006 34.566C16.0006 34.9029 15.626 35.071 14.8768 35.071C14.4913 35.071 14.1001 34.9137 13.703 34.5997C13.306 34.2856 13.1072 34.0274 13.1072 33.8257C13.1072 33.5789 13.2265 33.3429 13.4644 33.1183C13.703 32.8937 13.9468 32.7814 14.1969 32.7814C14.1969 32.7814 14.2809 32.81 14.4516 32.8658C14.6215 32.9216 14.8204 33.0732 15.0468 33.3207C15.2283 33.4996 15.4329 33.7356 15.6593 34.0274C15.8864 34.3193 15.9999 34.4988 15.9999 34.5654L16.0006 34.566ZM16.8511 55.7413C16.8511 55.9658 16.7549 56.1397 16.5618 56.2628C16.3687 56.3865 16.1481 56.4366 15.8986 56.4144C15.5804 56.3922 15.3483 55.8872 15.2007 54.8994C15.0532 53.9116 14.8999 52.0381 14.7408 49.2777C14.6504 47.4601 14.5709 45.6812 14.5029 43.9416C14.4342 42.2026 14.3893 40.8614 14.3663 39.9193C14.3663 39.6725 14.406 39.4873 14.4849 39.3636C14.5644 39.2399 14.7177 39.1783 14.9442 39.1783C15.4663 39.1783 15.796 39.3909 15.9319 39.8178C16.0679 40.2442 16.1365 41.0632 16.1365 42.2756L16.1019 46.2477C16.1019 48.5145 16.1699 50.3322 16.3065 51.7012C16.3065 51.7685 16.4085 52.4873 16.6125 53.8558C16.7715 54.7979 16.8511 55.4266 16.8511 55.7406V55.7413Z" fill="white"/>
<path fill-rule="evenodd" clip-rule="evenodd" d="M135.524 51.82V45.0672H149.001V41.3235H135.524V34.9551H149.001V31.1409H130.925V55.6342H149.001V51.82H135.524ZM12.6541 25.7642H17.2524V5.11935H25.4599V1.27029H4.44727V5.11935H12.6541V25.7642ZM49.8291 9.98349C49.8291 13.0624 47.7413 14.8819 43.7087 14.8819H38.3324V5.11998H43.7087C47.7413 5.11998 49.8291 6.90399 49.8291 9.98349ZM54.8879 25.7642L49.1915 17.7165C52.5525 16.4223 54.4627 13.6923 54.4627 9.98349C54.4627 4.55979 50.4307 1.27029 43.9204 1.27029H33.7335V25.7642H38.3318V18.6256H43.9198C44.2385 18.6256 44.5567 18.6256 44.8755 18.5901L49.9343 25.7636L54.8879 25.7642ZM75.966 22.1251C70.9784 22.1251 67.264 18.5203 67.264 13.5179C67.264 8.51416 70.9784 4.91062 75.966 4.91062C80.9536 4.91062 84.6687 8.51416 84.6687 13.5179C84.6687 18.521 80.9536 22.1251 75.966 22.1251ZM75.966 26.1138C83.6424 26.1138 89.3029 20.7947 89.3029 13.5172C89.3029 6.23911 83.6424 0.921356 75.966 0.921356C68.2889 0.921356 62.6298 6.27464 62.6298 13.5172C62.6298 20.7592 68.2889 26.1138 75.966 26.1138ZM123.005 14.7087H127.18L133.294 1.27029H137.822L149 25.7642H144.19C141.288 19.1218 138.42 12.4647 135.522 5.81976C134.24 8.78316 132.954 11.7459 131.67 14.7087H136.193L134.19 19.1122H129.763C128.804 21.3283 127.846 23.5456 126.891 25.7636H122.151L125.177 19.1122H121.098L123.005 14.7087ZM118.305 1.27029H113.777L106.454 13.2026L99.2018 1.27029H94.2841L104.013 17.1912V25.7636H108.612V17.1208L118.305 1.27029ZM66.307 44.5787H70.4832L76.5972 31.1403H81.1255L92.3034 55.6336H87.4928C84.5911 48.9911 81.7227 42.3347 78.8254 35.6898C77.5426 38.6532 76.2572 41.6159 74.9731 44.5787H79.4957L77.4926 48.9823H73.0655C72.1066 51.1983 71.1483 53.4156 70.1933 55.6336H65.4533L68.4794 48.9823H64.4007L66.307 44.5787ZM50.4256 55.9831C54.4941 55.9831 57.9603 54.5487 60.2597 51.8898L57.2881 49.0901C55.4844 51.0498 53.2555 51.9945 50.6732 51.9945C45.5445 51.9945 41.83 48.4252 41.83 43.3873C41.83 38.348 45.5445 34.78 50.6732 34.78C53.2555 34.78 55.4844 35.724 57.2881 37.6489L60.2597 34.8841C57.9603 32.2258 54.4941 30.7914 50.4609 30.7914C42.8544 30.7914 37.1952 36.0749 37.1952 43.3873C37.1952 50.6996 42.855 55.9831 50.4256 55.9831ZM116.355 39.8535C116.355 42.9324 114.267 44.7519 110.235 44.7519H104.858V34.99H110.235C114.267 34.99 116.355 36.774 116.355 39.8535ZM121.414 55.6336L115.718 47.5859C119.079 46.2917 120.989 43.5624 120.989 39.8535C120.989 34.4298 116.957 31.1403 110.447 31.1403H100.26V55.6336H104.859V48.4957H110.448C110.766 48.4957 111.085 48.4957 111.403 48.4608L116.462 55.6336H121.414Z" fill="#FEFEFE"/>
</g>
<defs>
<clipPath id="clip0">
<rect width="149" height="61" fill="white" transform="translate(0 0.921356)"/>
</clipPath>
</defs>
</svg>
