<svg width="140" height="66" viewBox="0 0 140 66" fill="none" xmlns="http://www.w3.org/2000/svg">
<g clip-path="url(#clip0)">
<path fill-rule="evenodd" clip-rule="evenodd" d="M32.4369 7.16816C33.1692 8.11564 36.7145 10.4109 38.5017 10.5884C38.2116 13.0962 37.1011 16.6054 36.2921 18.7485C35.2996 21.3779 34.9367 24.2871 34.6308 27.3267C34.3224 30.3891 33.9187 33.0813 33.0147 35.9405C32.6508 37.0911 30.6654 43.1274 31.1066 43.9859C31.8172 43.8574 32.1531 42.6732 32.4841 41.8943C32.8352 41.0674 33.092 40.2217 33.2956 39.3286C33.3152 39.772 32.8461 41.2478 32.7123 41.7687C32.4826 42.6613 32.0518 43.3577 32.4998 44.1189C33.2621 45.4143 33.1613 44.9275 32.9562 46.5135C32.8446 47.3755 32.6493 48.3373 32.6464 49.2043C32.8008 48.1001 34.2796 43.5055 34.6736 42.1078C34.8334 42.2467 34.9475 42.3134 35.0011 42.7691C35.0498 43.1838 35.0395 43.2124 34.917 43.5836C34.8039 43.9261 34.5241 44.4812 34.3731 44.7995C33.9452 45.6995 33.6024 46.3959 33.567 47.6385C33.54 48.5889 33.9211 49.8176 34.2157 50.6356C34.5251 51.4951 34.8732 52.4648 35.8027 52.6141C36.0009 51.9399 36.1249 51.3483 36.3344 50.7513C36.6196 51.3775 35.908 52.452 36.2036 52.9803C36.5527 52.8004 38.0286 47.7427 38.3055 47.0167C40.2122 42.0164 41.0035 39.9613 42.3697 34.5952C42.6215 33.6067 43.6602 28.2821 43.91 27.9114L49.994 35.4013L53.356 38.8986C53.804 39.3612 56.5 41.787 57.0395 41.9842C56.8664 41.4356 55.9477 40.4407 55.603 39.7705C55.6296 39.7566 55.6763 39.7141 55.6866 39.7388L55.9532 39.5846C56.1154 39.4161 55.9822 39.553 56.0343 39.3326C56.5099 39.6553 58.2203 40.8381 58.6728 41.0002L55.7702 36.0903C55.1874 35.1191 53.1435 31.8432 52.842 31.1132C52.8676 31.1349 52.9035 31.1374 52.9148 31.1828C52.9257 31.2273 52.9709 31.2367 52.9857 31.2525C54.0479 32.4076 56.3707 36.3661 57.8308 37.2093C58.1308 36.7906 57.6484 35.7374 60.2215 36.6107C61.0192 36.8811 62.1365 37.5814 62.5998 37.7149L61.0787 35.6044C61.8331 35.8476 62.8034 37.0724 63.6793 37.3027C63.4954 36.9068 58.6246 31.8852 57.8864 31.0939L52.1673 24.8031C54.0184 23.8739 59.5669 22.5048 61.8887 20.3657C63.2106 19.1478 62.5772 19.9189 64.0231 19.1345C68.1842 16.8753 67.3225 13.5761 65.8589 12.7176C64.2075 11.7489 63.1845 11.268 61.3929 10.4579C57.671 8.77448 52.1245 7.39304 47.5887 6.71048C46.2913 6.51525 45.0603 6.34128 43.7763 6.18015L35.4914 5.677C35.1723 5.76102 34.3018 6.22612 33.9364 6.38526L32.4379 7.16816H32.4369Z" fill="#FDFDFD"/>
<path fill-rule="evenodd" clip-rule="evenodd" d="M66.7734 35.4345L66.8472 35.2412C66.8526 35.2135 66.8683 35.171 66.8737 35.1354C66.8791 35.0979 66.8855 35.0638 66.8899 35.0203C66.8993 34.9244 66.8806 34.5972 66.8781 34.4825L67.2426 35.563C67.4427 35.3569 67.457 34.9471 67.5185 34.8097C67.8126 35.0633 68.0958 35.5244 68.3452 35.8215C70.6035 38.5131 73.2061 40.5757 77.2187 40.4185C78.3144 40.3755 79.6329 39.9139 80.4591 39.8882C81.6911 39.8501 81.3208 40.0537 83.2073 39.045C84.2937 38.4642 86.0214 37.2696 86.7984 36.9296C87.3025 36.7086 87.5199 36.3913 87.8936 36.0142C89.6307 34.2601 89.8131 33.9675 91.0829 31.5946C91.9372 29.9977 92.8662 27.9891 93.1042 25.8914C93.2473 24.6281 92.5741 23.9831 92.3282 22.9675C92.1383 22.1826 92.2633 18.3724 91.9992 17.5435C91.8575 17.0987 91.6062 16.5219 91.438 16.1008C90.7829 14.4589 90.268 14.2933 89.9607 13.7279C88.7174 11.4415 89.0843 11.4099 86.913 9.16549C83.5565 5.69584 79.685 7.46328 75.549 9.11112C69.0878 11.6857 67.1147 15.6244 65.6772 22.3057C65.1544 24.7354 65.0049 26.6486 65.177 29.2771C65.2803 30.8537 65.5277 32.6503 66.0268 34.1514C66.2132 34.7119 66.3711 35.129 66.7734 35.4345Z" fill="#FDFDFD"/>
<path fill-rule="evenodd" clip-rule="evenodd" d="M133.52 3.32877C132.594 3.23289 133.755 2.92645 132.544 3.02876C132.341 3.04606 131.779 3.24376 131.581 3.35002C131.035 3.64015 130.596 4.13292 130.477 4.82833C130.226 6.28489 129.69 6.42575 128.446 8.0642C126.926 10.0644 125.509 11.7785 123.907 13.9972C122.451 16.0137 121.059 17.9823 119.589 20.0256C117.635 22.742 110.535 32.6374 111.455 35.2149C111.66 35.7863 112.762 36.7995 113.647 36.9067C113.903 36.9379 114.561 36.8415 114.874 36.8252C116.223 36.7555 116.104 36.925 116.87 36.1525C118.703 34.303 118.975 33.8142 120.365 31.7996C120.8 31.1695 121.359 31.2713 122.169 30.9861C123.428 30.5432 124.601 29.9996 125.782 29.3729C126.515 28.9839 128.55 27.682 129.15 27.5179C129.196 29.5943 128.808 33.189 129.543 34.867C130.138 34.6954 129.736 34.5066 130.032 33.7628L130.167 34.9016C130.322 34.9979 130.077 34.9885 130.341 34.9144C130.554 34.8546 130.246 34.9653 130.506 34.8497L130.686 34.7404C130.71 35.4161 130.998 39.9518 131.905 40.2335L132.115 39.0177C132.385 39.25 132.322 40.0798 132.349 40.4377C133.105 40.5034 132.266 39.2297 133.394 41.6417C133.66 42.21 134.085 43.2509 134.639 43.4101L134.741 42.2906C135.154 42.7928 134.706 43.1229 135.261 43.4373C135.525 42.9139 135.226 41.8685 135.629 41.7618C136.1 41.6372 135.185 41.7756 135.895 41.7825L135.972 40.2503C136.104 40.4031 136.057 40.2449 136.184 40.6003C136.409 41.2255 136.12 41.6135 136.504 41.8626C136.795 41.5117 137.039 34.6001 137.115 33.531C137.394 29.5735 137.428 26.6683 137.46 22.8428C138.394 22.4603 139.171 21.7164 140.003 21.2874C138.94 20.5287 139.166 21.2385 137.69 21.3432C137.577 18.0837 137.91 11.1557 138.149 7.79483C138.294 5.74368 138.567 3.67821 137.407 2.26317C136.393 1.02704 135.515 1.70664 134.766 1.91274C133.71 2.20336 133.998 2.70008 133.521 3.32976L133.52 3.32877Z" fill="#FDFDFD"/>
<path fill-rule="evenodd" clip-rule="evenodd" d="M117.928 0.596842C116.271 0.458452 115.735 1.52999 114.549 3.47437C112.733 6.45273 113.781 4.7965 112.195 5.8448C110.355 7.06066 111.557 4.63933 109.156 9.28232L104.303 18.4087C104.123 18.6474 104.241 18.5886 103.942 18.7008C103.512 17.3159 103.1 11.0641 101.694 8.41294C101.466 7.98145 100.472 7.247 99.8849 7.11108C99.2913 6.97367 99.0794 7.19411 98.6844 7.21536C98.1631 7.24304 98.0367 6.93463 97.4274 7.376C96.7827 7.84306 97.3207 7.72247 96.3597 7.80056C95.8748 7.8396 95.5202 7.98491 95.1282 8.1841C94.4083 8.54984 94.9197 8.50734 94.0045 8.6655C91.6055 9.08017 91.8209 11.9646 92.0806 14.2258C92.3166 16.2839 92.923 17.4464 93.6509 18.9894C94.6679 21.1463 96.0897 24.2428 97.2592 26.3582C97.5066 26.8055 97.6005 27.0853 98.0933 27.1377C98.3343 26.7185 98.1444 26.5119 98.4661 26.0572L98.7144 26.9582C99.0321 26.81 98.8949 26.9474 99.0415 26.5984L99.3031 24.9882C99.6803 25.1775 99.4231 24.7193 99.9016 26.0884C100.127 26.7334 100.135 26.7783 99.9843 27.4139C99.5682 29.1656 96.0504 35.2152 95.3992 39.3111C95.2591 40.1928 95.265 41.5278 95.2384 42.4085C95.203 43.5784 95.6579 44.1898 96.2284 44.7864C97.4441 44.8017 95.5522 44.3079 97.3472 44.7241L98.9638 41.8925C100.224 39.875 101.253 38.2005 102.634 36.3426C103.326 35.4119 103.834 34.6903 104.534 33.6376C107.075 29.818 109.241 26.079 111.354 22.124C112.962 19.113 116.323 13.6802 118.167 10.598C118.747 9.62929 119.275 8.67538 119.857 7.67601C120.072 7.30779 120.505 6.59607 120.62 6.20314C120.879 5.31348 120.461 4.84444 120.513 4.19648C120.564 3.55543 121.082 3.07749 121.168 2.63662C121.264 2.14434 121.001 1.11383 120.79 0.725842C120.487 0.167832 120.177 -0.0446962 119.416 0.00769445C118.568 0.0660161 118.298 -0.211259 117.929 0.596842H117.928Z" fill="#FDFDFD"/>
<path fill-rule="evenodd" clip-rule="evenodd" d="M16.9631 7.09688C16.2588 8.30335 16.3262 9.67885 15.8762 10.7173C15.6229 11.301 15.1287 11.2135 14.897 12.1165C14.6984 12.8905 14.7805 13.6724 14.7741 14.5022C11.4323 15.9138 5.60551 16.5139 4.16798 17.8221C3.64865 18.2946 4.10405 18.1983 3.6334 18.7909C3.55914 18.8843 3.59356 18.7518 3.40521 19.036L3.76864 19.6444C3.24095 19.981 2.53472 20.0675 1.9249 20.3245C1.33867 20.5717 1.61949 20.5731 1.25113 20.8929C1.0795 21.0422 0.590649 21.2992 0.396389 21.4089C0.468191 23.3286 0.376717 21.8908 0 22.7834C0.35016 23.6242 0.604419 23.2026 1.15769 23.7739C1.80047 24.4377 1.06474 24.3201 2.17129 24.8796C3.15144 25.3748 4.67699 24.7476 5.69059 24.4812C8.24695 23.8095 10.2717 23.4952 13.009 23.2619C12.8305 25.1914 10.5077 35.2519 10.0543 37.483C9.68398 39.3048 7.46696 51.5494 8.10482 52.4825C8.53416 52.0777 8.41761 51.3611 8.85924 50.896C8.86908 51.581 8.56613 52.0006 8.53515 52.6081C8.9935 51.9813 9.4253 51.0517 9.81382 50.2267C10.2117 49.3816 10.6489 48.4638 10.9572 47.6487L12.4135 47.6744C12.5138 48.4672 12.4685 48.9995 12.741 49.7374C13.1477 49.5763 12.9053 49.6168 13.1103 49.1834C13.1551 49.3836 13.0474 49.3682 13.2274 49.5768L15.0962 44.6758C17.5655 37.9698 18.1124 36.3536 19.6999 28.8286L21.1571 21.9081C21.3981 20.6142 22.033 20.9008 24.4414 19.9563C26.7125 19.0662 30.4152 17.531 32.647 16.3438C33.4201 15.9326 33.4855 15.9578 33.5593 15.5733L32.1744 15.8234C32.5727 15.5016 33.1044 15.5634 33.5534 15.2886C33.0891 14.9728 31.8675 15.6064 30.759 15.5081C31.7091 15.036 32.6027 14.6915 33.5957 14.2986C34.5468 13.922 35.7379 13.5671 36.4373 12.9152L35.3917 12.5954C34.8227 12.4827 29.8742 13.5968 27.9734 13.5839L28.4067 13.2048C28.7097 13.019 28.5459 13.2449 28.8218 12.9152C28.3585 12.6982 27.43 13.1905 26.7833 13.1327C27.3469 12.8564 28.1284 12.89 28.6605 12.5401C28.2921 12.372 26.3343 12.7699 25.8076 12.847C24.9076 12.979 23.8315 13.2211 22.9296 13.2572C22.8976 12.3873 23.0009 11.8679 22.4594 11.2318C22.0227 10.7188 21.5122 10.5191 20.8202 10.2566C20.7829 8.74076 21.1158 8.38094 20.1726 7.28173C19.2352 6.18894 18.0677 6.95058 17.8695 7.0173C17.5016 7.14087 17.3723 7.07019 16.9636 7.09638L16.9631 7.09688Z" fill="#FDFDFD"/>
<path fill-rule="evenodd" clip-rule="evenodd" d="M32.7368 55.6108L34.9952 55.7966C34.8535 55.8812 34.8786 55.849 34.7424 55.9311L36.4164 56.1772C35.8096 56.3077 33.9821 56.4194 33.6742 56.8855L62.672 55.4062C72.4244 54.953 82.1659 54.3228 91.9104 53.75L91.0871 53.2695L103.563 52.1906C100.638 52.1585 97.6541 52.3656 94.7412 52.5074C91.811 52.6502 88.7565 52.7076 85.8544 52.9344C79.9371 53.3971 73.9367 53.3501 68.0523 53.7875C64.2428 54.0707 33.3422 55.2228 32.7363 55.6113L32.7368 55.6108Z" fill="#FDFDFD"/>
<path fill-rule="evenodd" clip-rule="evenodd" d="M92.8467 53.6315C93.0813 53.8361 93.2446 53.8549 93.4152 54.108L88.9866 54.4688C88.2174 54.5627 88.3467 54.6858 87.9036 54.9907C87.6317 55.4004 88.2179 54.9062 87.8736 55.6154C87.7408 55.8893 87.9115 55.3723 87.6931 55.9253C88.8562 55.7034 89.8452 54.968 90.9857 54.6566C90.2987 55.1691 89.0982 55.8186 88.3084 56.2965C87.4507 56.8155 86.3781 57.6453 85.6482 57.9923C85.8484 56.94 86.8128 55.6673 87.0907 54.619L83.298 54.8844C82.8219 55.8576 82.2755 57.4027 81.9244 58.3773C81.5796 59.3342 80.6378 61.1792 81.0214 62.1766C81.3352 62.4697 81.0603 62.2572 81.5053 62.45C81.8029 62.579 81.8093 62.615 82.0616 62.6081C82.395 62.5992 82.846 62.1717 83.0506 62.0046C83.7597 61.4254 83.9683 61.157 84.9715 60.816C86.3481 60.3479 91.2395 57.0493 92.676 56.0622C93.3424 55.6046 93.9065 55.2131 94.4977 54.7723C95.0332 54.3729 95.6942 53.9024 96.185 53.4304L92.8462 53.6305L92.8467 53.6315Z" fill="#FDFDFD"/>
<path fill-rule="evenodd" clip-rule="evenodd" d="M53.9663 63.279L56.384 61.9949C56.116 62.4165 55.6738 62.8055 55.453 63.281C56.2419 63.0724 56.7794 62.4665 57.5781 62.2035C57.3459 62.6597 57.1851 62.6503 56.9441 63.0951C57.9804 62.6464 60.4128 60.2814 61.2021 59.538C62.2472 58.554 62.1828 58.8204 64.0285 58.377C64.6122 58.2367 65.2919 58.0049 65.8206 58.0973C66.156 58.1561 66.4108 58.1744 66.7009 57.7088C66.7063 57.902 65.9908 59.8405 65.8506 60.2191C65.4434 61.3173 65.9312 60.4306 65.7488 61.5961C65.6731 62.0819 65.4473 62.459 65.4498 62.9484C65.6391 62.6582 65.9416 62.2119 66.2765 61.9559L64.7613 65.601C66.0316 64.5626 67.2203 62.9805 67.742 61.3658C68.3332 59.536 69.0138 57.5501 69.4899 55.7629C68.2697 55.7125 66.6625 55.8346 65.5186 56.1435C65.1183 56.2517 65.1036 56.1504 64.9388 56.1084C64.2523 55.9339 62.5418 56.1534 61.7706 56.2122C60.0975 56.3397 60.072 56.8078 58.1943 58.5154C57.6656 58.9963 57.1566 59.5247 56.6869 59.9977C56.1873 60.5008 55.7122 60.9768 55.2799 61.5758C54.8865 62.1215 54.2776 62.6469 53.9663 63.2795V63.279Z" fill="#FDFDFD"/>
<path fill-rule="evenodd" clip-rule="evenodd" d="M41.6948 54.4674C46.3556 54.287 45.0779 54.9449 46.7239 52.1069C47.4125 50.9192 47.2251 50.845 48.7797 50.5475C49.2036 50.4664 49.9462 50.4155 50.2585 50.2885C50.9775 49.9964 50.1832 49.9109 51.4806 49.774C52.4283 49.6742 53.6799 49.4685 54.4875 49.1784C54.0552 48.7415 53.5398 49.0351 52.8404 48.9857C53.5363 48.7217 54.037 49.0988 54.5602 48.4148C53.5486 48.0723 52.718 48.5784 52.1529 48.1163C53.1291 48.0115 55.4371 47.8894 56.0858 47.4105C51.5214 47.1604 50.797 47.71 48.4915 47.6863C47.7125 47.6784 46.8051 47.7881 46.0423 47.9304C43.3458 48.4346 43.9217 48.1736 43.1378 50.4951L41.6948 54.4674Z" fill="#FDFDFD"/>
<path fill-rule="evenodd" clip-rule="evenodd" d="M77.827 58.2308L77.3652 55.2895L74.7769 55.4224C74.8428 57.0209 77.2895 65.1641 78.5799 65.9999C78.8258 65.606 78.3404 65.3396 78.6921 65.002C78.9798 64.7257 78.9965 65.131 79.4165 65.3426C79.8793 64.4821 78.9385 65.2669 79.7484 62.9366C80.647 60.3516 81.3665 57.7805 81.664 55.035C81.1112 54.9934 80.5614 55.0483 80.0066 55.0804C79.353 55.118 78.9198 54.9682 78.6744 55.4729C78.2711 56.3022 78.3203 57.5077 77.8265 58.2313L77.827 58.2308Z" fill="#FDFDFD"/>
<path fill-rule="evenodd" clip-rule="evenodd" d="M84.2627 52.3087C84.9507 52.5889 87.481 52.2459 88.414 52.2306C88.9126 51.6656 88.8895 50.9959 89.6361 50.7562C90.2798 50.5496 91.5595 50.4883 92.0375 50.2966C92.8888 49.9555 91.8138 49.9906 92.9164 49.8043C93.8542 49.6461 95.7978 49.574 96.3171 49.0422C95.6001 48.8351 95.2922 49.0431 94.6263 48.9735C95.3414 48.7372 95.933 49.0827 96.3589 48.3947C95.6119 48.1836 94.7414 48.327 93.9457 48.3131C94.3372 47.9568 95.3247 47.9306 95.8588 47.8713C96.7116 47.7769 97.1173 47.6914 97.887 47.5199C97.856 47.5031 97.8053 47.4521 97.7876 47.4823C97.7694 47.5129 97.7124 47.4546 97.6868 47.4477L96.9511 47.3162C96.5326 47.2673 96.1593 47.2594 95.7383 47.2525L91.3874 47.6429C90.4141 47.7635 86.0642 47.6909 85.4578 48.794C85.2606 49.1524 84.6256 51.9236 84.2632 52.3087H84.2627Z" fill="#FDFDFD"/>
<path fill-rule="evenodd" clip-rule="evenodd" d="M71.3519 46.2447L71.8092 45.3096C70.9771 45.5265 66.8096 50.0766 65.7159 51.2001L63.7979 53.3738L70.3496 53.1029L72.1924 47.3444C72.4579 46.8749 72.9812 46.1972 73.0781 45.7129C72.8784 46.1167 72.4141 46.4661 72.1643 46.8516C72.4014 46.1795 72.9291 45.5379 73.2158 44.7891C72.1982 45.6422 72.541 45.9155 71.3514 46.2442L71.3519 46.2447Z" fill="#FDFDFD"/>
<path fill-rule="evenodd" clip-rule="evenodd" d="M44.0326 57.915C44.0183 57.8903 44.0134 57.8152 44.0115 57.8325L43.9082 57.3076L40.5512 57.5127C40.2158 57.9427 39.0738 61.0263 39.1097 61.6323C39.1574 62.4379 40.174 62.7621 40.6594 62.5026C40.9933 62.3237 41.8603 61.523 42.2675 61.229C42.7333 60.8929 43.5565 60.6754 44.1349 60.3695C45.1082 59.854 48.983 57.4746 49.3804 57.0155C48.4475 56.9512 47.3616 57.1153 46.408 57.1667C44.9208 57.2473 45.0315 57.1894 44.0326 57.9155V57.915Z" fill="#FDFDFD"/>
<path fill-rule="evenodd" clip-rule="evenodd" d="M72.1914 53.0286L76.951 52.7849C77.0469 51.3125 76.1356 48.2615 76.2719 45.2155C75.931 45.2016 76.0963 45.3484 75.5184 45.3509C75.4471 45.3514 75.4732 45.3104 75.2337 45.3341C74.0116 45.4562 75.7097 46.6814 74.0288 48.5596C73.5793 49.0617 73.473 49.6242 73.056 50.7066C72.7747 51.4361 72.3665 52.2902 72.1914 53.0286Z" fill="#FDFDFD"/>
<path fill-rule="evenodd" clip-rule="evenodd" d="M72.2157 30.1609C72.1218 29.7764 72.1907 29.7166 71.9748 29.3785C71.9467 30.3977 72.2816 30.8015 73.0351 31.8557C73.2928 32.216 74.4883 33.1264 75.0416 33.3434C76.5696 33.9429 79.7314 33.0088 80.987 32.4533C82.4899 31.7885 84.2289 30.3329 84.9395 29.4265C86.0761 27.9778 86.4961 26.1763 86.4946 23.9072C86.4936 22.3685 86.2959 21.0232 86.2172 19.5637C86.0751 16.9283 83.6314 15.497 81.0711 15.3843C78.9386 15.2904 76.1964 17.038 74.512 18.1872C73.1492 19.1169 73.5859 19.9447 73.2992 21.7295L72.4194 29.0523C72.413 29.1902 72.4125 29.55 72.3977 29.6538L72.2153 30.1604L72.2157 30.1609ZM78.9942 27.1336C79.7083 27.0086 81.0819 26.0003 81.3076 25.2945C81.7015 24.0594 81.2594 22.3938 81.3086 21.1522C80.984 21.2194 80.2547 21.5501 79.9429 21.7843C79.5027 22.115 79.5711 22.7605 79.4727 23.4297C79.3153 24.5017 79.0129 26.1372 78.9947 27.1336H78.9942Z" fill="black"/>
<path fill-rule="evenodd" clip-rule="evenodd" d="M48.7509 12.7983L47.1679 12.7953C47.098 14.5346 46.4267 16.0035 46.228 17.6464C49.1473 17.3128 51.0629 16.862 53.5858 15.8854C54.535 15.5177 55.191 15.3842 56.2937 14.8712C56.8051 14.6335 57.1863 14.5005 57.3692 14.0399L57.2074 13.9257C56.3369 13.4517 52.1621 12.7029 51.2331 12.6307C50.6547 12.5858 49.5782 12.7988 48.7509 12.7988V12.7983Z" fill="black"/>
<path fill-rule="evenodd" clip-rule="evenodd" d="M125.065 25.0744C125.715 24.9494 126.503 24.5555 127.215 24.3088C127.917 24.0652 128.787 23.8808 129.372 23.6035C129.579 22.5913 129.713 21.0018 129.797 19.909L130.045 16.339C129.151 18.0145 128.58 19.2091 127.637 20.7423C127.169 21.5039 126.77 22.186 126.378 22.8458C125.971 23.5294 125.347 24.3849 125.065 25.0754V25.0744Z" fill="black"/>
<path fill-rule="evenodd" clip-rule="evenodd" d="M46.9019 53.7009C47.3263 53.7661 47.1969 53.6772 47.4546 53.8867L47.135 54.1971C48.7495 54.2441 50.5436 54.0582 52.1675 53.9782C54.2818 53.8739 53.547 54.0864 55.1208 52.8018C55.349 52.616 55.5275 52.3526 55.7749 52.1771L55.1242 52.4079C55.4208 52.1035 56.1009 51.6552 56.277 51.3883C55.799 51.1629 55.5024 51.497 55.0608 51.6408C55.2634 51.3967 55.4508 51.2721 55.7547 51.0695C55.9003 50.9726 56.0434 50.8856 56.1265 50.8199L56.4698 50.4764C55.7591 50.6202 54.9 51.064 54.1578 51.3398C53.3178 51.6522 52.6928 51.9231 51.8198 52.2325C50.2849 52.7766 48.5145 53.2897 46.9023 53.7004L46.9019 53.7009Z" fill="#FDFDFD"/>
<path fill-rule="evenodd" clip-rule="evenodd" d="M71.125 55.6562C70.7989 57.2724 69.5449 58.9025 70.2609 60.7361C70.884 60.7554 70.8166 60.7351 70.9819 60.3229L71.127 60.4885C71.1447 60.5053 71.607 61.3604 72.0491 60.1979C72.2537 59.6592 72.4209 59.1946 72.6255 58.6548C72.9353 57.8359 73.5643 56.2973 73.643 55.4798L71.125 55.6562Z" fill="#FDFDFD"/>
<path fill-rule="evenodd" clip-rule="evenodd" d="M80.9074 50.7684C80.5647 50.1387 80.6084 50.159 80.2716 51.0877C80.1024 51.5553 79.8393 52.1148 79.7842 52.649L82.0533 52.524C82.0573 52.5151 84.8394 42.9943 83.0089 46.6029L80.9074 50.7684Z" fill="#FDFDFD"/>
</g>
<defs>
<clipPath id="clip0">
<rect width="140" height="66" fill="white"/>
</clipPath>
</defs>
</svg>
