<svg width="287" height="134" viewBox="0 0 287 134" fill="none" xmlns="http://www.w3.org/2000/svg">
<g clip-path="url(#clip0)">
<path d="M90.6962 118.609C90.6737 118.601 90.6505 118.6 90.6283 118.593C90.5597 118.572 90.4905 118.558 90.4203 118.544C90.3591 118.533 90.298 118.52 90.2361 118.514C90.1695 118.508 90.1028 118.509 90.0355 118.509C89.9715 118.509 89.9077 118.508 89.8443 118.514C89.7789 118.521 89.7145 118.535 89.6498 118.548C89.5861 118.561 89.522 118.573 89.4599 118.592C89.3997 118.61 89.3404 118.635 89.2812 118.659C89.2161 118.685 89.152 118.712 89.0902 118.746C89.0693 118.757 89.0468 118.763 89.0262 118.775C82.0586 122.833 74.7067 125.007 67.3811 125.631L71.2323 114.016L93.3661 99.5538C93.5502 99.4332 93.6816 99.2475 93.7341 99.0341L97.4361 83.9793L116.22 75.1047C115.532 84.6302 112.409 93.9945 106.881 102.139C106.862 102.167 106.851 102.197 106.834 102.224C106.785 102.305 106.738 102.385 106.7 102.471C106.68 102.519 106.666 102.568 106.649 102.616C106.623 102.691 106.597 102.766 106.58 102.844C106.569 102.897 106.564 102.951 106.557 103.004C106.546 103.081 106.535 103.156 106.534 103.234C106.533 103.289 106.539 103.343 106.542 103.398C106.547 103.474 106.55 103.548 106.563 103.624C106.574 103.688 106.594 103.749 106.611 103.812C106.627 103.866 106.633 103.921 106.654 103.975L115.087 126.946L90.6962 118.609ZM40.1109 121.018L47.7088 107.953C47.7851 107.819 47.8263 107.67 47.8263 107.516V84.203C47.8263 83.9329 47.7005 83.6779 47.4863 83.5138C47.2713 83.3487 46.9908 83.293 46.732 83.3658L28.9145 88.2169L20.7409 85.8172C20.6118 85.7794 20.4753 85.7717 20.3423 85.7962L8.59412 87.9239C4.95516 77.0444 4.77357 64.9084 8.37968 54.2185C13.4118 39.3026 24.7485 30.4051 33.8581 23.2561C42.6078 16.3893 52.4196 11.5231 55.2182 10.1952C57.7467 8.99565 60.3373 7.8783 62.9524 6.85896L60.9226 20.1404C60.8531 20.5975 60.942 21.0653 61.1741 21.465L88.1002 67.8146C87.8783 69.9332 86.7897 77.2975 82.2438 79.744C79.4516 81.2469 75.6259 80.6469 70.8688 77.9641L65.7568 69.1656C65.3498 68.4654 64.5645 68.0747 63.7641 68.1734C61.3251 68.4706 48.7488 69.5109 40.5971 60.7697C38.3317 58.341 36.6336 55.4135 35.5488 52.0702C35.2037 51.0063 34.0613 50.4248 33.0001 50.7694C31.9379 51.115 31.3561 52.2575 31.7009 53.3213C32.9698 57.2323 34.9683 60.6685 37.64 63.5338C46.0677 72.5715 58.3275 72.6556 62.9112 72.3223L67.6435 80.4696C67.8193 80.772 68.0705 81.0238 68.3722 81.2001C74.6474 84.8681 79.9626 85.5763 84.1705 83.3052C91.4725 79.3636 92.1644 67.9425 92.1905 67.458C92.2111 67.0641 92.1168 66.673 91.9188 66.3316L77.8894 42.182H82.6742L89.6212 45.6359L96.5294 53.928C96.5671 53.9731 96.6093 54.0144 96.655 54.0512L103.706 59.673C103.865 59.7994 104.055 59.8626 104.246 59.8626C104.448 59.8626 104.65 59.7917 104.812 59.6511L113.156 52.4441C115.532 59.1108 116.586 66.1453 116.328 73.1334L96.3221 82.5841C96.0861 82.6959 95.9125 82.9077 95.8504 83.1614L92.1316 98.2856L70.0306 112.727C69.8664 112.834 69.7434 112.993 69.6816 113.18L65.5124 125.753C56.7186 126.187 48.0137 124.421 40.1109 121.017V121.018ZM13.6716 98.7737C11.8702 95.8833 10.3704 92.7956 9.17657 89.5828L20.4489 87.5415L28.6615 89.9526C28.8147 89.9977 28.9783 89.999 29.1325 89.9571L46.0916 85.3391V107.282L38.5197 120.303C28.1856 115.496 19.3464 107.881 13.6713 98.7737H13.6716ZM110.802 103.534C116.618 94.6286 119.943 84.3249 120.414 73.6589C120.915 62.3413 118.159 51.1601 112.445 41.3235C106.828 31.6536 98.6506 23.8138 88.7982 18.6517C87.8072 18.1333 86.5866 18.516 86.0679 19.5066C85.5501 20.4982 85.932 21.7216 86.9224 22.2403C96.098 27.0479 103.715 34.3509 108.948 43.3603C110.329 45.7368 111.512 48.1972 112.505 50.7146L104.224 57.8677L97.8041 52.7491L90.8363 44.3842C90.759 44.292 90.6637 44.2165 90.5559 44.1627L83.2628 40.5376C83.143 40.478 83.011 40.4473 82.8771 40.4473H76.8813L65.0297 20.0466L67.4726 4.06334C67.5804 3.35863 67.31 2.64941 66.7607 2.19551C66.2117 1.74161 65.4628 1.60911 64.7944 1.84896C60.968 3.21356 57.1639 4.78997 53.4857 6.53433C49.7762 8.29448 40.1936 13.1372 31.3622 20.0685C22.3318 27.1552 9.96476 36.8609 4.54658 52.9222C-0.699345 68.4741 1.48203 86.8649 10.2397 100.917C17.754 112.975 30.3251 122.504 44.7296 127.059C50.7392 128.959 56.8217 129.901 62.8181 129.901C72.4068 129.901 81.7698 127.484 90.2426 122.734L117.796 132.152C118.01 132.225 118.231 132.261 118.449 132.261C118.985 132.261 119.51 132.048 119.897 131.651C120.441 131.093 120.617 130.27 120.348 129.536L110.802 103.534V103.534Z" fill="white"/>
<path d="M88.4126 117.153C88.4055 117.155 88.3987 117.158 88.3916 117.161L88.4126 117.153ZM15.1438 97.8582C20.3521 106.214 28.3679 113.338 37.8282 118.047L44.3594 106.817V87.6135L29.5892 91.6358C29.121 91.7625 28.6329 91.7564 28.1738 91.6219L20.3559 89.3263L11.568 90.9175C12.5873 93.3531 13.7864 95.68 15.1441 97.8582H15.1438ZM89.7285 120.364L89.7114 120.371C89.7169 120.37 89.723 120.367 89.7285 120.364ZM42.6117 120.172C49.623 122.917 57.0446 124.26 64.2468 124.067L68.0368 112.637C68.2228 112.08 68.5938 111.597 69.0838 111.278L90.6126 97.2099L94.1685 82.7512C94.3552 81.9875 94.8714 81.355 95.5842 81.0184L114.625 72.0239C114.726 66.3766 113.953 60.8201 112.325 55.46L105.946 60.9707C105.033 61.7598 103.576 61.7908 102.627 61.0364L95.5758 55.4136C95.4355 55.3008 95.3112 55.1786 95.2011 55.0474L88.5243 47.0326L82.2683 43.9223H80.9048L93.4183 65.463C93.7873 66.0977 93.9615 66.8208 93.9228 67.5545C93.8526 68.8691 93.0036 80.5139 84.9948 84.8372C80.2173 87.4143 74.3317 86.6964 67.4994 82.7028C66.9398 82.3759 66.4713 81.9066 66.1455 81.345L61.9482 74.12C56.3278 74.3617 44.6775 73.6267 36.3738 64.7221C33.5276 61.6702 31.4006 58.0161 30.0531 53.8611C29.4134 51.8881 30.4959 49.7624 32.466 49.1219C34.4371 48.4803 36.5596 49.5654 37.199 51.5374C38.2049 54.638 39.7745 57.3466 41.8654 59.5887C49.444 67.7157 61.2643 66.7334 63.5555 66.4542C65.044 66.2695 66.4993 66.9933 67.256 68.2953L72.1277 76.6812C76.1363 78.8634 79.2624 79.3814 81.4235 78.2183C84.9294 76.3324 86.0245 70.355 86.311 68.1893L59.6767 22.3414C59.2465 21.6018 59.081 20.7282 59.2098 19.8823L60.7791 9.61503C59.1525 10.2981 57.5404 11.0183 55.9618 11.7672C53.2044 13.0754 43.5381 17.8691 34.9288 24.626C26.0008 31.6325 14.8898 40.352 10.0234 54.7776C6.76539 64.4365 6.69166 75.7125 9.78519 85.9475L20.0352 84.0916C20.4274 84.0181 20.8411 84.041 21.2285 84.1551L28.9336 86.4175L46.2781 81.6935C47.0469 81.4804 47.896 81.6448 48.5402 82.1377C49.18 82.6283 49.5612 83.4017 49.5612 84.2067V107.519C49.5612 107.978 49.4392 108.431 49.2087 108.828L42.6117 120.172ZM91.0527 116.912C91.113 116.926 91.1732 116.941 91.2334 116.96L91.2575 116.969L112.206 124.129L105.027 104.577C104.986 104.466 104.958 104.36 104.934 104.253C104.901 104.141 104.874 104.032 104.855 103.921C104.833 103.795 104.821 103.663 104.814 103.529C104.804 103.393 104.799 103.297 104.801 103.201C104.804 103.058 104.819 102.919 104.839 102.781C104.854 102.66 104.867 102.569 104.887 102.478C104.919 102.331 104.963 102.194 105.01 102.056C105.045 101.95 105.075 101.866 105.112 101.782C105.172 101.641 105.245 101.507 105.324 101.375C105.36 101.305 105.399 101.238 105.443 101.172C110.125 94.2754 113.119 86.3157 114.19 77.9875L98.9228 85.1999L95.4181 99.452C95.2603 100.095 94.8685 100.649 94.315 101.01L72.6873 115.142L69.8797 123.609C76.326 122.718 82.4618 120.593 88.1546 117.278L88.3491 117.179C88.4306 117.138 88.5285 117.095 88.6286 117.055C88.7435 117.007 88.8453 116.968 88.9493 116.935C89.0703 116.899 89.1776 116.875 89.2867 116.853C89.4374 116.823 89.5514 116.803 89.666 116.79C89.7916 116.779 89.9142 116.777 90.0195 116.776C90.1792 116.776 90.2887 116.779 90.3982 116.789C90.5179 116.802 90.6239 116.819 90.7308 116.84C90.8483 116.862 90.9526 116.885 91.0527 116.912ZM90.0714 120.844L118.357 130.513C118.43 130.537 118.532 130.57 118.659 130.44C118.735 130.362 118.76 130.243 118.722 130.138L108.875 103.317L109.352 102.587C115 93.9391 118.227 83.9101 118.683 73.5851C119.169 62.6009 116.494 51.7482 110.947 42.1999C105.495 32.8133 97.5576 25.2034 87.995 20.1927C87.8555 20.1192 87.6788 20.1737 87.605 20.3156C87.5593 20.4032 87.5687 20.4838 87.5854 20.5357C87.6018 20.588 87.6395 20.6599 87.7271 20.7053C97.1928 25.665 105.05 33.1986 110.448 42.4906C111.744 44.7231 112.903 47.0848 113.894 49.519L113.94 49.4787L114.571 51.2266L114.565 51.2321L114.79 51.8643C117.131 58.433 118.239 65.3047 118.088 72.306L118.164 72.2695L117.95 75.2325C117.229 85.2235 113.915 94.8376 108.366 103.041C108.347 103.077 108.327 103.111 108.306 103.144L108.272 103.268L108.284 103.354C108.293 103.386 108.301 103.42 108.309 103.453L117.97 129.769L90.0163 120.247L89.8057 120.332C82.929 124.322 75.4283 126.69 67.528 127.363L64.9062 127.586L64.9287 127.519C56.4144 127.835 47.612 126.143 39.4261 122.615L39.232 122.532L39.223 122.547L38.6669 122.288L37.6282 121.841L37.6446 121.812C27.0253 116.84 17.9942 108.991 12.2016 99.6954H12.2013C10.3651 96.748 8.80059 93.5504 7.5523 90.1906L7.44379 89.8992L7.42673 89.9024L7.26478 89.4175L6.82947 88.246L6.871 88.2383C3.11099 76.8305 3.06172 64.5622 6.73738 53.6657C11.9347 38.2582 23.4974 29.184 32.7883 21.8923C41.6803 14.9139 51.6363 9.97641 54.4758 8.62889C57.0317 7.4158 59.6722 6.27685 62.323 5.24365L65.12 4.15338L62.6363 20.4055C62.6266 20.47 62.6395 20.5377 62.6727 20.5947L89.8837 67.4339L89.8247 67.9981C89.5028 71.0693 88.201 78.512 83.0646 81.2754C79.7164 83.0777 75.3269 82.473 70.0175 79.4791L69.6067 79.2473L64.2584 70.041C64.2017 69.943 64.0871 69.8859 63.9757 69.8991C61.3896 70.2151 48.0541 71.3127 39.3299 61.9571C36.8906 59.3411 35.0637 56.196 33.8998 52.609C33.8511 52.4575 33.6889 52.3743 33.5359 52.4236C33.4416 52.4539 33.3923 52.5184 33.3679 52.5667C33.3434 52.6161 33.3202 52.6937 33.3505 52.7879C34.5402 56.4558 36.4099 59.6741 38.9077 62.3521C46.7716 70.7853 58.2272 70.9262 62.785 70.5932L63.8653 70.5145L69.1421 79.599C69.1675 79.6425 69.2029 79.6777 69.2458 79.7035C74.9637 83.0455 79.7077 83.7428 83.3479 81.7795C89.8003 78.2966 90.4529 67.4768 90.4587 67.3685C90.4613 67.3124 90.4484 67.2566 90.4197 67.2073L63.2232 20.392L65.7588 3.80329C65.7739 3.70303 65.735 3.60083 65.657 3.537C65.5788 3.47156 65.4719 3.4519 65.3798 3.48543C61.6047 4.83198 57.8534 6.38614 54.2286 8.10568C50.5713 9.84133 41.1255 14.6141 32.4319 21.4374C23.5737 28.3888 11.4417 37.9097 6.18938 53.48C1.10509 68.5522 3.2211 86.3779 11.7109 100.001C19.0101 111.714 31.2354 120.974 45.2522 125.406C51.0462 127.238 56.956 128.167 62.8179 128.167C72.233 128.167 81.1749 125.831 89.3955 121.222L90.0701 120.843L90.0714 120.844ZM118.45 134C118.038 134 117.63 133.932 117.238 133.799L90.4088 124.628C81.9557 129.218 72.4346 131.64 62.8188 131.64C56.6025 131.64 50.3411 130.657 44.2087 128.717C29.4166 124.041 16.4996 114.244 8.76968 101.84C-0.255252 87.3576 -2.50295 68.402 2.90525 52.3701C8.48892 35.8175 21.0916 25.9271 30.2937 18.7053C39.2622 11.6666 48.982 6.75397 52.7449 4.96931C56.4747 3.1998 60.3335 1.60083 64.2143 0.217206C65.449 -0.226057 66.8503 0.0192692 67.8661 0.860341C68.8806 1.69787 69.3871 3.02798 69.1878 4.32908L66.838 19.7066L77.8801 38.714H82.8788C83.2771 38.714 83.6763 38.8075 84.034 38.9848L91.3284 42.6109C91.6529 42.773 91.9346 42.9948 92.1668 43.2724L99.0242 51.5045L104.182 55.6161L110.43 50.2189C109.558 48.1496 108.558 46.1422 107.452 44.236C102.382 35.5103 95.0063 28.4371 86.1201 23.7817C84.2852 22.8198 83.5736 20.5425 84.5344 18.705C85.4942 16.8687 87.7683 16.1569 89.6029 17.1157C99.7464 22.4306 108.164 30.5006 113.946 40.4536C119.828 50.5783 122.664 62.0877 122.148 73.7383C121.678 84.393 118.424 94.7493 112.729 103.749L121.978 128.94C122.475 130.293 122.146 131.834 121.14 132.866C120.435 133.587 119.456 133.999 118.451 133.999L118.45 134Z" fill="white"/>
<path d="M142.965 74.4653H151.289L147.734 50.0674L147.214 46.855L146.867 50.0674L142.965 74.4653ZM129.871 90.0936L140.624 30.4452C140.68 30.2144 140.826 30.098 141.057 30.098H153.631C153.861 30.098 154.006 30.2144 154.065 30.4452L164.384 90.0936C164.441 90.3841 164.326 90.5278 164.037 90.5278H154.412C154.18 90.5278 154.034 90.3841 153.978 90.0936L153.023 83.7554H141.23L140.276 90.0936C140.218 90.3841 140.073 90.5278 139.843 90.5278H130.217C129.986 90.5278 129.871 90.3841 129.871 90.0936Z" fill="white"/>
<path d="M168.026 90.5278C167.795 90.5278 167.68 90.3841 167.68 90.0936L167.853 30.5323C167.853 30.2434 167.968 30.098 168.2 30.098H177.912C178.142 30.098 178.259 30.2434 178.259 30.5323V51.1097L191.874 30.4455C192.047 30.215 192.249 30.0983 192.48 30.0983H202.453C202.683 30.0983 202.741 30.2154 202.627 30.4455L187.624 54.4088L204.447 90.1806C204.563 90.4124 204.417 90.5278 204.013 90.5278H193.434C193.144 90.5278 192.971 90.4124 192.914 90.1806L181.207 64.6545L178.172 69.4295V90.0936C178.172 90.3841 178.056 90.5278 177.825 90.5278H168.026H168.026Z" fill="white"/>
<path d="M213.551 90.5278C213.319 90.5278 213.205 90.3841 213.205 90.0936V40.6042H201.931C201.641 40.6042 201.498 40.4601 201.498 40.1693L201.584 30.4452C201.584 30.2147 201.699 30.098 201.931 30.098H234.883C235.172 30.098 235.317 30.215 235.317 30.4452V40.1693C235.317 40.4597 235.201 40.6042 234.97 40.6042H223.61L223.697 90.0936C223.697 90.3841 223.58 90.5278 223.35 90.5278H213.551Z" fill="white"/>
<path d="M237.744 90.5278C237.512 90.5278 237.398 90.3841 237.398 90.0936L237.484 30.4452C237.484 30.2147 237.628 30.098 237.918 30.098H247.543C247.832 30.098 247.977 30.215 247.977 30.4452L247.89 54.0616H260.898V30.4452C260.898 30.2147 261.013 30.098 261.245 30.098H270.87C271.158 30.098 271.304 30.215 271.304 30.4452L271.477 90.0936C271.477 90.3841 271.332 90.5278 271.043 90.5278H261.331C261.041 90.5278 260.898 90.3841 260.898 90.0936V64.5671H247.89V90.0936C247.89 90.3841 247.774 90.5278 247.543 90.5278H237.744Z" fill="white"/>
<path d="M276.855 90.5278C276.565 90.5278 276.421 90.3841 276.421 90.0936L276.508 30.4452C276.508 30.2147 276.623 30.098 276.855 30.098H286.567C286.797 30.098 286.914 30.215 286.914 30.4452L287.001 90.0936C287.001 90.3841 286.884 90.5278 286.654 90.5278H276.855H276.855Z" fill="white"/>
<path d="M287 107.511H112.73V99.9884H287V107.511Z" fill="white"/>
</g>
<defs>
<clipPath id="clip0">
<rect width="287" height="134" fill="white"/>
</clipPath>
</defs>
</svg>
